<svg xmlns="http://www.w3.org/2000/svg" viewBox="0 0 17 24"><defs><style>.cls-1{fill:#7e6214;}</style></defs><title>square-phone</title><g id="Слой_2" data-name="Слой 2"><g id="Слой_1-2" data-name="Слой 1"><path class="cls-1" d="M13.86,24H3.14A3.18,3.18,0,0,1,0,20.8V3.2A3.18,3.18,0,0,1,3.14,0H13.86A3.18,3.18,0,0,1,17,3.2V20.8A3.18,3.18,0,0,1,13.86,24ZM3.14,2A1.17,1.17,0,0,0,2,3.2V20.8A1.17,1.17,0,0,0,3.14,22H13.86A1.17,1.17,0,0,0,15,20.8V3.2A1.17,1.17,0,0,0,13.86,2ZM8.51,19.6a1,1,0,0,1,0-2h0a1,1,0,0,1,0,2Z"/></g></g></svg>