<svg width="1920" height="28" viewBox="0 0 1920 28" fill="none" xmlns="http://www.w3.org/2000/svg">
<path d="M155.864 0C90.2819 0 68.1374 16 0 16V28H641.343V16C563.837 16 558.726 0 487.182 0C415.637 0 405.417 16 316.839 16C252.96 16 221.446 0 155.864 0Z" fill="white"/>
<path d="M794.652 0C729.069 0 706.925 16 638.787 16V28H1280.13V16C1202.63 16 1197.51 0 1125.97 0C1054.43 0 1044.2 16 955.626 16C891.747 16 860.234 0 794.652 0Z" fill="white"/>
<path d="M1433.9 0C1368.24 0 1346.06 16 1277.83 16V28H1920V16C1842.4 16 1837.28 0 1765.64 0C1694.01 0 1683.77 16 1595.08 16C1531.12 16 1499.56 0 1433.9 0Z" fill="white"/>
</svg>
