<svg width="208" height="166" viewBox="0 0 208 166" fill="none" xmlns="http://www.w3.org/2000/svg">
<g clip-path="url(#clip0)">
<path fill-rule="evenodd" clip-rule="evenodd" d="M115.181 0C115.367 0 115.553 0 115.738 0C115.738 0.073313 115.738 0.146846 115.738 0.220159C113.524 0.489854 111.255 1.86541 109.612 2.86207C104.556 5.92779 99.7403 9.17117 95.9101 13.4297C94.9876 14.4554 94.2927 15.6091 93.4594 16.7321C93.0569 17.2748 92.4188 17.7382 92.0113 18.2732C91.4506 19.0094 90.8831 19.9607 89.6721 20.0345C89.5769 19.8738 89.4702 19.7188 89.3379 19.5942C89.3327 18.2587 89.0251 16.7979 89.5607 15.7414C90.4101 14.0651 93.0482 11.5771 94.5734 10.4576C95.33 9.90232 96.0242 9.12626 96.8013 8.58621C100.524 5.9989 104.611 3.71012 108.943 1.76127C110.207 1.19282 111.641 0.827578 112.953 0.440318C113.668 0.229406 114.636 0.382637 115.181 0ZM117.521 0.660477C118.086 0.891645 118.257 1.56005 118.635 1.98143C119.723 3.19473 120.927 4.35695 122.088 5.50398C126.214 9.58023 131.701 12.7754 133.896 18.7135C135.635 23.4194 132.924 29.2145 128.771 29.5013C128.734 29.3912 128.697 29.2812 128.66 29.1711C129.619 27.7154 128.82 23.0892 128.326 21.9058C126.795 18.2395 124.397 16.0555 121.197 14.0902C119.389 12.9799 117.064 12.2415 116.072 10.3475C115.156 8.597 116.977 6.72344 117.409 5.3939C117.84 4.06898 117.574 2.11749 117.521 0.660477ZM79.0896 8.58621C79.011 11.314 80.1167 15.434 82.32 15.6313C82.6362 15.8371 83.016 15.6749 83.434 15.6313C84.5421 14.3319 85.0728 14.5776 84.5479 12.439C84.6593 12.439 84.7707 12.439 84.8821 12.439C85.0819 13.0671 85.5901 13.531 85.8847 14.0902C86.535 15.3246 86.9803 16.7774 87.3328 18.2732C87.6696 19.7029 86.7631 20.7876 86.4416 21.6857C86.199 22.3635 86.1442 23.2356 85.996 23.8873C85.7895 24.7961 85.9366 26.4528 86.1074 27.1897C86.3391 28.1881 86.1852 28.9983 86.4416 29.9416C86.9246 31.7192 87.5246 33.493 88.2239 35.0053C88.5628 35.7382 88.6688 36.9372 89.3379 37.317C89.3379 36.4731 89.3379 35.629 89.3379 34.7851C89.7099 34.2046 89.3829 33.2652 89.5607 32.4735C89.9438 30.7664 90.2544 27.814 89.7834 25.9788C89.6602 25.4991 89.4187 24.9982 89.3379 24.4377C91.2282 24.7613 92.6775 27.0987 94.462 27.63C94.462 27.5567 94.462 27.4831 94.462 27.4098C92.6481 25.9488 94.6235 21.689 95.3531 20.5849C97.1542 17.8591 99.7069 16.2971 103.374 15.4111C105.327 14.9391 107.446 15.3603 109.166 14.7507C110.208 14.3815 111.203 13.8053 112.062 13.2095C112.618 12.8238 112.994 12.2118 113.733 11.9987C113.733 12.072 113.733 12.1455 113.733 12.2188C113.184 13.0777 113.777 15.0783 113.845 15.9615C114.062 18.8218 115.223 21.7143 114.624 24.878C114.699 24.878 114.773 24.878 114.847 24.878C115.391 24.0059 118.549 21.1782 120.083 22.2361C120.685 22.6517 120.093 23.8908 120.528 24.2175C121.119 22.0401 123.391 21.5322 126.321 21.5756C126.157 22.3543 125.642 23.1323 125.43 23.9973C125.132 25.2117 125.442 27.1593 125.652 28.0703C125.727 28.8408 125.801 29.6114 125.875 30.382C126.303 32.0103 126.638 33.8578 127.1 35.4456C127.307 36.1541 127.475 39.2517 127.88 39.5186C127.88 39.4453 127.88 39.3717 127.88 39.2984C129.1 37.9625 129.123 35.1387 129.217 33.0239C129.903 32.4992 130.298 31.5636 130.999 31.0424C133.288 29.3417 136.827 26.3991 135.678 21.7958C135.455 21.0252 135.232 20.2546 135.009 19.4841C135.439 19.3386 136.192 19.3661 136.792 19.374C137.776 20.1421 139.166 20.1501 139.911 21.2454C140.621 22.29 140.607 24.4744 142.139 24.6578C143.115 21.0639 143.051 18.2657 144.924 15.5212C145.229 15.0741 145.412 14.5444 145.926 14.3103C145.926 14.2736 145.926 14.237 145.926 14.2003C145.963 14.2003 146 14.2003 146.037 14.2003C146.019 14.9138 146.121 16.034 146.594 16.2918C146.594 16.255 146.594 16.2185 146.594 16.1817C147.123 15.5725 147.09 14.5012 147.486 13.7599C148.076 12.653 150.993 10.0252 152.61 9.90716C152.539 10.7623 151.989 11.5024 151.719 12.2188C151.207 13.5724 150.979 15.1051 150.605 16.5119C149.686 19.9601 150.258 24.157 149.268 27.5199C148.567 29.9027 147.8 32.2113 146.594 34.1247C145.761 35.4476 144.617 36.6312 143.698 37.8674C142.145 39.9569 140.454 42.0638 138.017 43.2613C138.017 43.3346 138.017 43.4081 138.017 43.4814C138.203 43.4814 138.388 43.4814 138.574 43.4814C139.017 43.1965 140.255 43.3788 140.913 43.3714C142.642 43.3518 144.684 43.2106 146.26 43.5915C147.07 43.787 147.595 43.5898 148.377 43.8117C150.161 44.318 152.12 44.7784 153.724 45.5729C156.794 47.0942 159.633 49.4658 162.858 50.6366C166.247 51.8669 166.973 48.5458 168.762 48.3249C168.762 48.3982 168.762 48.4718 168.762 48.5451C169.052 48.9836 168.938 49.6221 169.096 50.1963C169.911 53.1649 167.148 55.4614 165.309 56.5809C164.794 56.894 163.522 56.9743 163.192 57.4615C166.341 57.6075 167.717 58.9221 167.537 61.9748C167.133 62.2174 166.836 62.5974 166.311 62.7454C165.941 62.8497 165.293 62.6047 165.086 62.8554C165.086 62.9655 165.086 63.0756 165.086 63.1857C166.826 64.2279 168.408 65.518 170.656 66.0477C173.02 66.6052 174.709 64.1597 175.111 62.6353C175.325 61.8262 174.911 61.2564 174.777 60.7639C175 60.7639 175.223 60.7639 175.445 60.7639C176.228 61.2925 176.904 61.3297 177.339 62.195C177.584 62.6806 177.424 63.104 177.562 63.7361C178.488 67.9794 174.78 69.0212 170.99 68.7997C170.99 68.8365 170.99 68.873 170.99 68.9098C171.576 69.2709 171.794 69.678 171.77 70.6711C171.44 70.9307 171.319 71.4154 170.99 71.6618C169.779 72.5673 167.042 73.112 165.309 72.2122C164.047 71.5575 163.447 70.2466 162.635 69.13C162 68.2555 161.19 67.4783 160.519 66.5981C159.936 65.8349 158.982 65.2664 158.402 64.5066C157.752 63.6544 156.936 62.6998 156.063 62.0849C155.618 61.7714 155.086 61.713 154.615 61.4244C153.073 60.4808 151.524 59.5372 149.936 58.5623C148.628 57.7588 146.703 56.0829 145.035 55.8103C145.12 56.7429 145.629 57.8426 145.369 59.0027C144.62 62.3425 143.351 63.7288 140.245 64.7268C139.3 65.0304 137.519 65.5931 136.123 65.2772C134.211 64.8444 131.77 63.7145 129.663 64.0663C129.663 64.1396 129.663 64.2132 129.663 64.2865C131.421 65.2873 132.896 67.9471 131.222 70.2308C130.292 71.4993 128.086 71.7822 126.098 71.992C126.061 71.9187 126.024 71.8452 125.987 71.7719C126.794 71.2549 126.921 69.805 126.655 68.5796C126.618 68.5796 126.581 68.5796 126.543 68.5796C126.543 68.5428 126.543 68.5063 126.543 68.4695C123.507 68.1683 121.32 68.3429 120.305 65.9377C119.679 64.4527 119.573 61.112 120.305 59.6631C120.755 58.7726 121.622 58.0846 122.088 57.2414C122.862 55.8385 122.753 54.7351 124.873 54.5995C125.233 54.8601 125.741 54.8936 126.098 55.1499C126.893 55.7212 127.297 56.87 128.103 57.4615C129.35 58.377 130.913 59.181 132.559 59.6631C136.435 60.7981 140.145 58.7843 140.134 55.2599C139.825 54.9257 139.739 54.4216 139.465 54.0491C138.244 52.3853 135.644 51.0813 132.782 51.0769C132.782 51.0402 132.782 51.0036 132.782 50.9668C132.819 50.9668 132.856 50.9668 132.893 50.9668C133.422 50.5618 134.153 50.6348 134.898 50.4164C137.089 49.7745 141.141 49.1019 143.698 49.9761C145.609 50.6293 146.197 52.2187 147.708 53.1684C149.391 54.2259 153.925 55.8524 156.954 55.0398C158.183 54.7102 159.257 54.1197 160.296 53.6088C160.296 53.5354 160.296 53.4619 160.296 53.3886C160.222 53.3886 160.147 53.3886 160.073 53.3886C159.702 53.1728 159.032 53.4027 158.514 53.2785C157.126 52.9463 155.577 52.7653 154.392 52.1777C153.415 51.6929 152.897 50.7841 152.053 50.1963C150.801 49.3253 149.03 48.7349 147.486 48.2149C145.151 47.4284 142.423 47.4696 139.911 46.8939C139.02 46.8571 138.128 46.8206 137.237 46.7838C135.788 46.473 132.272 46.292 130.776 46.6737C128.132 47.3492 125.461 48.0039 123.09 48.8753C121.185 49.5757 119.337 49.9711 117.743 50.9668C116.936 51.4715 116.273 52.283 115.515 52.8382C113.619 54.2292 111.596 55.7304 110.28 57.6817C109.475 58.8752 108.829 60.2712 108.163 61.5345C107.898 62.0384 107.799 62.7216 107.384 63.0756C107.384 63.1124 107.384 63.1489 107.384 63.1857C107.271 63.2947 107.272 63.0756 107.272 63.0756C106.66 62.2722 106.82 60.9914 106.493 59.8833C105.706 57.2242 104.055 56.0547 100.589 56.8011C100.589 56.7278 100.589 56.6542 100.589 56.5809C101.228 56.1767 101.669 55.479 102.26 55.0398C103.666 53.9934 105.119 52.8847 106.604 51.9576C109.42 50.2003 112.569 49.1228 115.738 47.6645C115.738 47.6277 115.738 47.5911 115.738 47.5544C115.279 47.5253 114.592 47.4392 114.402 47.1141C114.439 47.1141 114.476 47.1141 114.513 47.1141C115.159 46.5597 116.216 46.4619 116.964 46.0133C119.449 44.5208 123.076 41.7373 121.419 37.317C121.09 36.437 120.494 35.6118 120.083 34.7851C120.008 34.7851 119.934 34.7851 119.86 34.7851C119.862 40.4549 114.703 41.1764 112.731 44.9125C112.656 44.9125 112.582 44.9125 112.508 44.9125C112.508 44.3988 112.508 43.885 112.508 43.3714C113.082 42.6222 113.323 41.2288 113.845 40.3992C114.629 39.1507 115.712 37.9973 116.407 36.6565C116.715 36.0612 117.072 34.8752 116.629 34.2347C116.357 33.4466 114.347 32.0979 112.842 32.5836C112.273 32.7674 111.642 33.3319 111.171 33.6843C110.66 34.0668 110.582 35.013 110.057 35.3355C109.97 33.2185 108.124 32.1091 107.606 30.2719C107.009 28.1535 108.406 26.5664 108.943 25.2082C109.314 24.2714 108.855 23.4617 108.163 23.2268C106.906 22.7997 105.511 23.5832 104.71 23.9973C102.104 25.3458 100.184 27.5144 99.3633 30.6021C98.6453 33.3044 100.58 34.7537 100.923 36.4363C100.886 36.4363 100.849 36.4363 100.811 36.4363C99.8503 35.441 98.6005 35.2338 97.0241 35.4456C96.6542 35.9159 96.056 36.1755 95.7987 36.7666C95.1257 38.3128 95.848 40.1286 96.4671 41.0597C98.4954 44.1095 102.99 44.8916 106.715 46.2334C107.564 46.539 110.824 47.0234 111.171 47.5544C109.931 47.6541 109.701 48.19 108.943 48.6552C108.034 49.2135 106.796 49.3874 105.601 49.6459C103.61 50.0765 101.382 49.2461 99.9203 48.8753C97.6668 48.3038 95.5505 48.3582 93.3481 47.7745C91.8095 47.3668 90.0147 46.5835 88.5581 46.3435C88.5581 46.3803 88.5581 46.4168 88.5581 46.4536C89.5573 47.4095 90.1466 48.6519 90.8974 49.866C93.821 54.5948 94.6531 59.6565 93.1253 66.2679C93.1995 66.2679 93.2739 66.2679 93.3481 66.2679C93.5499 65.1693 94.5687 64.1266 95.1304 63.2958C97.0717 60.4238 99.4177 57.5549 104.153 57.7918C104.352 58.266 104.492 58.9991 104.153 59.443C103.862 60.2789 102.71 60.7989 102.148 61.4244C101.278 62.3927 100.499 63.6108 99.8089 64.7268C97.6075 68.2887 96.7716 72.8359 95.5759 77.3859C95.2948 78.4555 95.3614 79.6179 95.1304 80.5782C95.1304 81.0919 95.1304 81.6057 95.1304 82.1194C94.6567 84.2527 94.7721 88.3941 95.3531 90.3753C95.817 91.9567 96.4707 93.4049 97.1355 94.7785C97.2096 94.7785 97.2841 94.7785 97.3582 94.7785C97.3582 94.5216 97.3582 94.2649 97.3582 94.0079C96.9517 93.4426 97.1116 92.4611 96.9127 91.6963C96.4987 90.1048 95.5169 86.1941 96.0215 83.9907C96.345 82.578 96.3071 81.0395 96.6899 79.5875C97.6345 76.0036 98.5346 72.4365 100.032 69.4602C101.264 67.0107 102.155 64.9804 104.71 63.8462C104.71 63.993 104.71 64.1396 104.71 64.2865C104.291 64.6381 104.277 65.1636 104.042 65.7175C103.069 68.0142 102.647 70.7798 104.487 72.5424C104.92 72.9566 105.811 73.6591 106.938 73.313C107.215 73.228 107.779 72.9478 108.052 72.7626C109.744 71.6149 109.981 69.2718 110.503 66.9284C110.503 65.7177 110.503 64.5064 110.503 63.2958C111.555 58.8325 113.664 55.8264 116.852 53.4987C118.307 52.4364 120.027 50.9589 122.422 51.187C122.422 51.2971 122.422 51.4072 122.422 51.5172C121.35 51.895 120.507 53.1891 119.748 53.939C117.685 55.9794 116.292 58.1702 115.404 61.4244C114.96 63.0516 115.269 67.8977 115.627 69.3501C115.627 70.781 115.627 72.2124 115.627 73.6432C115.628 77.9211 114.89 82.1376 113.176 84.8714C111.783 87.0936 109.478 88.2829 107.161 89.6048C106.812 89.804 105.35 90.9968 105.156 90.8157C105.025 90.415 105.655 87.9164 105.824 87.183C105.824 86.6326 105.824 86.0822 105.824 85.5318C105.825 83.2305 105.623 81.6029 104.487 80.4682C104.056 80.0373 103.218 79.1961 102.148 79.4775C100.306 79.962 99.7672 81.6099 100.254 83.7706C100.254 84.2109 100.254 84.6512 100.254 85.0915C101.316 89.609 101.875 93.4411 103.819 96.9801C105.911 100.787 109.303 103.953 112.953 106.227C116.287 108.303 119.951 109.767 120.974 114.153C121.165 114.974 120.804 115.581 120.751 116.244C120.491 116.464 120.231 116.684 119.971 116.905C117.907 116.925 116.848 115.948 115.627 115.143C115.36 114.968 114.547 114.459 114.402 114.593C114.364 114.593 114.327 114.593 114.29 114.593C114.613 115.281 114.91 116.506 114.736 117.345C114.515 118.407 114.692 119.081 114.29 119.877C113.004 122.423 109.15 124.455 104.822 123.509C104.413 123.509 104.005 123.509 103.596 123.509C102.693 123.3 101.525 123.082 100.7 122.849C99.4397 122.492 95.4977 121.912 95.019 121.088C99.1359 121.252 100.915 118.995 102.037 115.914C102.361 115.024 103.167 111.735 101.925 111.401C100.928 110.849 97.1499 114.076 96.1329 111.29C95.2765 110.234 96.0861 108.01 96.1329 106.667C96.0957 106.667 96.0587 106.667 96.0215 106.667C96.0215 106.74 96.0215 106.814 96.0215 106.887C95.4184 107.416 95.2322 108.625 94.7962 109.309C93.7085 111.016 90.7301 114.469 88.4467 114.813C88.4467 114.776 88.4467 114.74 88.4467 114.703C88.4095 114.703 88.3725 114.703 88.3353 114.703C88.6437 114.111 89.126 113.502 89.3379 112.832C90.2638 109.901 88.3113 107.502 87.5556 105.786C87.2648 105.126 87.0781 104.238 86.8872 103.585C86.813 102.851 86.7386 102.117 86.6644 101.383C85.894 98.0558 86.2418 92.274 86.8872 89.0544C86.813 89.0544 86.7386 89.0544 86.6644 89.0544C86.6644 89.0911 86.6644 89.1277 86.6644 89.1645C85.8503 89.8562 85.4868 91.2359 84.8821 92.1366C83.9045 93.593 82.715 95.1231 81.5403 96.4297C79.633 98.5509 76.3932 99.3314 75.525 102.484C75.1264 103.931 75.578 105.856 75.8592 107.107C75.8964 107.878 75.9334 108.649 75.9706 109.419C76.2134 110.212 76.8256 110.777 76.9731 111.621C74.0724 111.685 70.9768 110.126 70.4009 107.878C70.1161 106.767 70.9881 106.201 71.0692 105.236C69.4801 105.24 68.4129 106.16 67.3932 106.777C64.3372 108.626 60.4982 109.992 59.4842 113.822C59.0344 115.522 60.0189 116.663 60.1526 117.895C59.0897 117.766 58.363 117.101 57.5905 116.684C55.5997 115.61 54.1289 114.641 53.5804 112.171C53.729 110.777 53.8773 109.382 54.0259 107.988C52.9278 107.811 51.5677 107.385 51.4639 106.227C50.9437 105.394 51.87 104.298 52.2436 103.915C54.3835 101.723 56.3356 102.634 59.3729 101.603C59.3729 101.567 59.3729 101.53 59.3729 101.493C58.1105 101.493 56.8478 101.493 55.5854 101.493C55.0111 101.124 54.062 101.287 53.3576 101.053C51.9393 100.581 50.3985 99.8734 49.236 99.0716C46.1361 96.9337 43.8409 93.7675 41.6612 90.7056C40.2864 88.7746 38.6464 86.9787 37.2054 85.0915C36.3076 83.9156 34.3696 82.369 33.0838 81.569C32.5534 81.239 31.3452 81.0362 31.0787 80.4682C31.5203 79.7243 30.9714 78.2263 31.1901 77.2759C31.8075 74.5939 31.8701 72.0843 32.7497 69.7905C36.9432 58.8538 45.0084 50.8213 57.0336 47.5544C58.8896 47.0502 61.6092 47.3633 63.6058 47.4443C63.6058 47.5176 63.6058 47.5911 63.6058 47.6645C63.5686 47.6645 63.5316 47.6645 63.4944 47.6645C62.6376 48.2303 61.3735 48.2761 60.3754 48.6552C58.8003 49.2536 57.0828 50.0512 55.5854 50.8568C48.5362 54.6494 42.8404 59.7195 39.2105 66.9284C38.4065 68.5252 37.7537 70.4014 37.2054 72.3223C37.1312 73.0561 37.0568 73.7901 36.9826 74.5239C36.7812 75.4008 36.5406 77.1669 36.8712 78.1565C41.8526 75.8913 46.6441 80.0554 49.4588 82.1194C51.4783 83.6002 54.2057 85.8885 55.6968 87.8435C57.0075 89.5618 58.2268 91.4695 60.264 92.4668C63.023 93.8175 67.1667 93.4479 70.9578 93.4576C71.0305 93.6638 71.0639 93.8882 71.0692 94.2281C70.5537 94.7875 70.3008 95.6021 69.8439 96.2096C69.0006 97.3306 67.4013 97.9369 66.6135 99.0716C66.6507 99.0716 66.6877 99.0716 66.7249 99.0716C67.1281 98.5615 67.8526 98.3486 68.3958 97.9708C69.0499 97.5158 69.6325 96.9198 70.2895 96.4297C71.3228 95.6587 72.9411 93.8459 73.7427 92.7971C74.0397 92.5402 74.3369 92.2835 74.6338 92.0265C76.8945 89.0528 80.6199 85.2 80.6491 80.248C80.5749 80.248 80.5005 80.248 80.4263 80.248C80.3744 86.1919 73.6487 85.6201 70.7351 88.504C69.8755 89.3547 70.2576 90.1103 69.8439 91.3661C68.6072 90.7205 66.1476 86.5763 66.0565 84.7613C66.6705 84.0191 66.937 83.0007 67.5046 82.2294C67.8397 81.7744 68.3971 81.6165 68.6186 81.0186C68.5072 81.0186 68.3958 81.0186 68.2844 81.0186C67.082 82.1266 64.4847 80.8849 64.1628 79.9178C63.9131 79.6085 63.9249 79.0686 63.94 78.4867C64.1555 78.2637 64.194 77.976 64.3856 77.7162C64.8639 77.0676 65.7805 76.8131 66.6135 76.5053C66.6135 76.4685 66.6135 76.432 66.6135 76.3952C66.128 76.2314 65.2687 76.2768 64.6084 76.2851C64.2876 76.4712 63.7301 76.2821 63.2716 76.3952C62.3849 76.6141 61.277 76.7268 60.3754 77.0557C58.4995 77.7397 56.9324 78.7553 55.3627 79.6976C55.3627 79.5508 55.3627 79.4041 55.3627 79.2573C55.8033 78.7095 55.8229 77.9658 56.1424 77.2759C56.7128 76.0441 57.2635 74.6786 57.9247 73.4231C60.2388 69.0285 62.9811 64.9773 67.0591 62.305C68.9942 61.0369 70.9044 60.1034 74.1883 60.1034C74.7822 60.1034 75.3766 60.1034 75.9706 60.1034C77.0992 60.3652 78.3667 60.557 79.4238 60.9841C80.349 61.3579 81.2241 62.0296 82.32 62.195C82.32 62.1582 82.32 62.1216 82.32 62.0849C81.9043 61.6996 81.6664 61.2232 81.3175 60.7639C80.1831 59.2708 77.8342 57.5903 76.1934 56.5809C74.7432 55.6888 73.1202 54.9257 71.6262 54.1592C70.8785 53.7756 70.1326 53.6504 69.5097 53.1684C68.1318 52.1022 68.3624 49.7179 67.5046 48.1048C66.7815 46.7449 65.3137 46.6348 63.6058 46.2334C62.6777 46.1967 61.7491 46.1601 60.821 46.1233C59.5983 45.8704 57.5005 46.172 56.3652 46.4536C55.3502 46.7052 54.6341 46.6097 53.6917 46.8939C51.5739 47.5326 49.4358 48.4551 47.6765 49.5358C46.5997 50.3429 45.5228 51.1505 44.446 51.9576C44.0755 52.299 43.3646 52.9745 42.7751 52.7281C39.4233 52.2422 41.5153 45.975 42.9979 44.9125C43.4983 44.5538 45.4174 43.9724 45.6714 43.5915C43.1329 42.996 40.8961 40.8765 40.1017 38.5279C38.9753 35.1975 41.0839 31.8885 42.3296 30.0517C42.7631 29.4122 43.1661 28.5108 43.8891 28.1804C43.8891 28.1436 43.8891 28.1071 43.8891 28.0703C43.9263 28.0703 43.9633 28.0703 44.0005 28.0703C44.0227 32.3009 46.2034 35.6011 50.5727 35.2255C50.935 34.7708 51.2237 34.7671 51.2411 33.9045C50.2064 32.7998 49.7404 30.0755 50.1271 28.2905C50.2385 28.2905 50.3499 28.2905 50.4613 28.2905C50.7806 28.8067 51.1865 29.7129 51.6867 30.0517C53.5752 31.3311 57.081 30.8811 59.707 31.4828C63.7785 32.4156 67.9809 32.5105 71.292 34.1247C72.6091 34.7667 74.1297 35.336 75.4136 36.1061C76.2234 36.5918 77.1926 37.4438 78.1985 37.6472C78.1985 37.5739 78.1985 37.5004 78.1985 37.4271C76.6369 36.328 74.7541 32.6465 73.7427 30.8223C72.7406 29.0148 71.5868 27.0945 70.6237 25.2082C69.7125 23.4236 69.0381 21.5397 68.173 19.8143C67.0789 17.6319 66.5337 15.3182 65.2767 13.3196C64.9758 12.8412 64.4139 11.9813 63.94 11.6684C63.6078 11.4492 63.1618 11.5601 62.9375 11.2281C66.5591 10.264 70.4049 11.4514 72.406 13.4297C72.9128 13.9308 73.4546 15.4369 73.9655 15.7414C73.9655 15.7046 73.9655 15.6681 73.9655 15.6313C74.4567 15.0688 74.4879 14.2392 74.8566 13.5398C75.48 12.3571 76.526 11.286 77.3073 10.2374C77.7789 9.60444 78.1013 8.69342 79.0896 8.58621ZM77.5301 19.4841C77.4107 19.5669 77.4247 19.5504 77.1959 19.5942C76.583 20.4145 75.8824 21.1256 75.525 22.2361C74.4197 25.6701 76.084 29.33 77.0845 31.4828C79.6684 37.0418 84.584 41.1493 89.6721 44.252C90.7998 44.9398 91.9897 45.2004 93.2367 45.7931C95.6009 46.9168 98.4065 47.3331 101.368 47.9947C101.967 48.1283 104.418 48.2382 104.822 47.9947C102.3 47.95 99.8261 47.1158 97.9152 46.4536C97.4358 46.2874 97.3197 46.5623 96.9127 46.4536C96.4272 46.3239 95.6477 46.0463 95.1304 45.7931C89.0676 42.8267 82.6311 38.075 80.2036 31.5928C79.5024 29.7208 79.535 27.4279 79.5352 24.878C79.5354 23.5476 79.7038 21.9303 79.3124 20.9151C79.0709 20.2885 78.5144 19.929 78.0871 19.4841C77.9015 19.4841 77.7157 19.4841 77.5301 19.4841ZM114.179 25.6485C113.962 26.0759 113.714 26.2881 113.622 26.8594C113.696 26.8594 113.77 26.8594 113.845 26.8594C113.845 26.7861 113.845 26.7126 113.845 26.6393C114.113 26.4424 114.379 25.9759 114.179 25.6485ZM126.766 44.6923C130.925 44.6765 133.667 43.1825 136.235 41.6101C140.297 39.1234 143.996 36.8436 143.921 30.2719C143.564 29.9905 143.662 29.7886 143.03 29.7215C142.048 29.2299 139.025 31.686 138.463 32.2533C137.814 32.9074 137.522 33.7555 137.015 34.565C136.134 35.9709 135.115 37.3253 134.118 38.6379C132.355 40.9597 129.119 42.5764 126.766 44.3621C126.766 44.4722 126.766 44.5822 126.766 44.6923ZM92.1227 68.1393C92.2341 68.1393 92.3455 68.1393 92.4569 68.1393C92.5367 67.7009 92.853 67.4411 92.9025 67.1485C92.7539 66.7082 92.6055 66.2679 92.4569 65.8276C91.9516 64.0987 91.6849 62.3953 91.1202 60.874C90.7234 59.8054 90.6305 58.9428 90.229 57.9019C88.3665 53.0738 85.3315 48.4407 81.4289 45.5729C79.6107 44.2368 77.7952 42.1981 74.7452 42.1605C74.3997 42.4403 74.1335 42.4518 73.9655 42.931C73.4938 43.5125 73.8902 44.5226 73.9655 45.2427C73.8913 45.2427 73.8169 45.2427 73.7427 45.2427C73.2156 43.8211 71.2593 43.0843 69.8439 42.4907C67.4647 41.4927 64.7447 40.7986 61.3779 40.7294C60.524 40.6927 59.6698 40.6561 58.8159 40.6194C57.7643 40.8459 56.3278 40.9219 55.2513 40.9496C55.2513 41.0229 55.2513 41.0964 55.2513 41.1698C55.6224 41.1698 55.994 41.1698 56.3652 41.1698C57.0739 41.5841 58.1883 41.3631 59.0387 41.6101C61.0128 42.1834 63.0469 42.6567 64.9426 43.3714C72.7272 46.3065 80.8013 51.0749 85.1049 57.4615C87.0534 60.3531 88.608 64.5229 86.6644 68.6897C86.6272 68.6897 86.5902 68.6897 86.553 68.6897C86.553 68.6529 86.553 68.6163 86.553 68.5796C85.996 67.9926 85.4391 67.4053 84.8821 66.8183C83.5741 65.8553 82.0108 64.9318 80.4263 64.2865C74.9159 62.0426 68.7598 63.2962 65.9451 67.0385C65.3048 67.8898 64.3591 68.7394 64.1628 70.0106C64.237 70.0106 64.3114 70.0106 64.3856 70.0106C64.9437 69.342 66.1487 69.2361 67.0591 68.9098C69.6111 67.9948 72.7076 68.0411 76.082 68.0292C76.082 68.1025 76.082 68.176 76.082 68.2493C74.8332 68.6181 72.6132 70.2358 72.6287 71.882C72.9181 72.0924 73.2024 72.4927 73.5199 72.6525C75.8443 73.8224 82.2969 73.2773 84.6593 72.4324C85.1878 72.2432 85.9669 71.9758 86.4416 71.6618C86.8039 71.4223 86.7903 71.1281 87.3328 71.0013C87.5988 71.4181 87.9463 71.6893 88.5581 71.7719C89.318 70.5927 89.0678 68.7522 88.8923 67.0385C88.5824 64.0119 87.7935 60.9308 87.11 58.122C87.1842 58.122 87.2586 58.122 87.3328 58.122C87.8002 58.8345 88.6172 59.3089 89.1151 59.9934C90.6229 62.0664 91.9481 64.8413 92.1227 68.1393ZM141.582 70.2308C141.619 70.0474 141.656 69.8638 141.693 69.6804C141.73 69.6804 141.767 69.6804 141.804 69.6804C141.804 69.6436 141.804 69.6071 141.804 69.5703C144.501 69.1628 147.173 70.3726 149.156 71.4417C149.73 71.7505 150.081 72.2776 150.827 72.4324C150.571 70.7979 148.663 69.9135 148.711 68.2493C148.785 68.2493 148.86 68.2493 148.934 68.2493C149.518 68.0664 151.629 69.2929 152.164 69.6804C152.384 69.8395 152.889 70.6211 153.167 70.3409C153.274 70.1848 153.275 69.9805 153.278 69.6804C152.714 69.1978 152.487 68.2 152.053 67.5889C151.248 66.4555 150.053 65.1149 148.934 64.2865C148.359 63.8609 146.724 63.1392 146.483 62.5252C147.208 61.5928 147.257 61.1598 149.045 61.2042C149.606 61.6375 150.452 61.6981 151.05 62.0849C152.039 62.7249 153.69 64.1346 154.392 65.057C156.083 67.28 157.785 69.7299 158.848 72.5424C159.301 73.7421 159.363 74.7471 159.739 76.065C160.035 77.1006 160.713 80.381 160.407 81.7891C160.259 83.0365 160.11 84.2844 159.962 85.5318C159.888 85.5318 159.813 85.5318 159.739 85.5318C159.656 84.8454 159.296 84.21 159.071 83.6605C158.199 81.5362 157.491 79.4539 156.62 77.496C156.213 76.5821 155.912 74.9664 154.949 74.6339C154.949 74.6707 154.949 74.7073 154.949 74.744C154.811 74.9464 154.828 75.3719 154.838 75.7347C155.28 76.415 155.045 77.5099 155.283 78.3767C155.792 80.2249 156.877 84.6116 155.952 86.9629C155.877 86.9629 155.803 86.9629 155.729 86.9629C155.729 86.8896 155.729 86.816 155.729 86.7427C154.996 85.8863 154.901 81.8356 154.392 80.4682C152.629 75.731 148.05 70.2123 141.582 70.2308ZM160.853 68.0292C162.31 68.5582 163.468 71.1565 164.195 72.5424C167.493 78.8333 168.002 91.0028 164.64 97.7507C160.252 106.56 153.543 112.73 143.364 115.804C139.704 116.909 134.39 116.681 130.999 115.584C122.997 112.992 117.676 109.463 112.396 104.245C110.788 102.656 109.205 101.119 107.829 99.2918C107.344 98.6465 106.549 98.1527 106.27 97.3103C106.344 97.3103 106.418 97.3103 106.493 97.3103C107.023 97.8242 107.728 98.0067 108.386 98.4111C109.827 99.2975 111.329 100.14 112.842 101.053C118.518 104.478 128.505 109.006 138.017 106.337C141.051 105.486 143.01 104.966 145.48 103.695C146.387 103.229 147.665 103.159 147.708 101.824C145.386 100.258 141 98.7156 140.134 95.8793C139.504 93.8164 141.767 90.0634 142.918 89.935C144.174 90.9132 147.475 91.3524 149.268 91.9165C150.606 92.3374 152.309 92.364 153.835 92.687C155.271 92.9908 157.226 92.3737 158.179 92.0265C160.952 91.0173 162.476 89.2955 163.304 86.4125C163.528 85.6318 163.342 85.0748 163.526 84.2109C163.725 83.28 163.732 81.5089 163.526 80.5782C163.281 79.4664 163.57 78.656 163.304 77.6061C162.89 75.9793 162.744 74.1769 162.19 72.5424C161.722 71.1649 161.08 69.5613 160.853 68.0292ZM86.8872 69.5703C87.1124 69.7616 87.0953 69.8065 87.11 70.2308C87.0728 70.2308 87.0358 70.2308 86.9986 70.2308C86.9986 70.194 86.9986 70.1575 86.9986 70.1207C86.9008 69.9782 86.899 69.8492 86.8872 69.5703ZM118.3 81.1286C118.983 81.4935 119.06 82.7316 119.414 83.4403C120.244 85.1034 121.091 86.9151 122.088 88.504C125.54 94.0069 131.186 101.272 140.022 101.273C140.022 101.347 140.022 101.42 140.022 101.493C138.166 101.493 136.309 101.493 134.452 101.493C132.41 101.273 130.368 101.053 128.326 100.833C123.603 99.6782 118.819 98.6394 116.295 95.3289C115.628 94.4531 114.599 93.6931 114.402 92.3568C114.476 92.3568 114.55 92.3568 114.624 92.3568C116.195 94.4961 121.113 96.0187 124.093 96.9801C124.609 97.1466 127.215 97.8372 127.546 97.6406C127.583 97.6406 127.62 97.6406 127.657 97.6406C127.544 97.5521 127.627 97.6016 127.435 97.5305C126.944 97.0748 126.159 96.9863 125.541 96.6499C124.708 96.1966 123.862 95.4628 123.09 94.8886C122.49 94.4417 122.094 93.7321 121.642 93.1273C119.009 89.6061 118.301 86.9692 118.3 81.1286ZM64.1628 99.9522C63.6678 100.472 62.1856 100.676 61.4893 100.943C61.4893 100.98 61.4893 101.016 61.4893 101.053C61.6379 101.053 61.7863 101.053 61.9349 101.053C62.5899 100.525 64.0588 100.68 64.497 99.9522C64.3856 99.9522 64.2742 99.9522 64.1628 99.9522ZM8.46575 143.103C13.4707 143.035 16.4093 144.518 18.2684 147.507C18.7263 148.242 19.0208 149.274 19.271 150.149C19.539 151.085 19.5951 152.604 19.3824 153.561C19.2004 154.38 19.4015 154.942 19.1596 155.653C17.9657 159.157 15.5259 161.121 11.6962 162.037C10.9238 162.222 9.84058 162.164 9.24551 162.037C8.00658 161.772 7.14729 161.971 6.12647 161.597C3.08586 160.481 1.17122 158.08 0.222586 154.882C-0.168407 153.563 0.360492 149.75 0.668163 148.938C1.52924 146.665 3.40556 144.627 5.6809 143.764C6.49563 143.455 7.72832 143.564 8.46575 143.103ZM125.764 143.103C130.741 143.035 133.973 144.509 135.678 147.617C136.046 148.288 136.362 149.206 136.569 149.928C136.934 151.204 136.898 153.433 136.569 154.662C135.385 159.087 133.512 160.956 128.994 162.037C127.325 162.437 125.189 162.031 123.981 161.597C122.801 161.173 121.888 160.924 120.974 160.276C118.157 158.281 116.382 153.163 118.078 148.718C118.828 146.75 120.626 144.808 122.533 143.984C123.291 143.657 125.183 143.477 125.764 143.103ZM191.152 145.525C186.947 145.514 187.45 147.573 186.028 150.149C185.389 151.307 184.356 151.534 183.689 152.35C183.651 152.35 183.614 152.35 183.577 152.35C183.467 152.461 183.689 152.46 183.689 152.46C184.115 152.8 184.693 152.912 185.137 153.231C186.962 154.541 188.106 157.077 189.37 158.955C189.933 159.792 191.039 160.742 191.263 161.817C190.187 161.817 189.11 161.817 188.033 161.817C187.234 160.215 185.904 158.77 184.914 157.304C184.066 156.047 183.297 154.483 182.018 153.671C181.473 153.326 180.779 153.224 179.901 153.231C179.901 156.056 179.901 158.882 179.901 161.707C179.244 161.927 178.073 161.826 177.228 161.817C177.228 155.726 177.228 149.634 177.228 143.544C177.856 143.333 178.976 143.425 179.79 143.434C180.001 144.062 179.901 145.155 179.901 145.966C179.901 147.763 179.901 149.562 179.901 151.359C180.151 151.445 180.506 151.472 180.904 151.469C181.497 151.052 182.361 151.151 182.798 150.589C185.467 147.15 184.552 143.281 191.041 143.324C191.225 143.859 191.161 144.812 191.152 145.525ZM25.6204 161.817C24.7665 161.817 23.9123 161.817 23.0584 161.817C22.5665 160.341 22.947 157.805 22.947 156.093C22.947 151.91 22.947 147.726 22.947 143.544C23.7294 143.288 25.0895 143.434 26.066 143.434C28.2195 143.434 30.3734 143.434 32.5269 143.434C33.0983 143.771 34.1049 143.548 34.7548 143.764C35.7448 144.094 36.8666 144.758 37.4282 145.525C37.7646 145.985 38.1436 146.738 38.3194 147.286C38.7302 148.568 38.2909 150.216 37.8738 151.029C35.8758 154.926 31.537 154.398 25.7318 154.332C25.2462 155.777 25.6122 159.969 25.6204 161.817ZM55.8082 151.249C55.8082 151.946 55.8082 152.644 55.8082 153.341C52.5798 153.504 48.38 153.341 44.7802 153.341C44.2175 154.417 44.5452 157.925 44.5574 159.505C45.576 159.838 47.3396 159.615 48.5676 159.615C51.3523 159.615 54.1376 159.615 56.9222 159.615C57.1069 160.151 57.042 161.104 57.0336 161.817C52.0213 161.817 47.0077 161.817 41.9954 161.817C41.5035 160.341 41.884 157.805 41.884 156.093C41.884 151.91 41.884 147.726 41.884 143.544C43.0803 143.154 45.1454 143.434 46.5625 143.434C49.8669 143.434 53.1722 143.434 56.4766 143.434C56.6517 143.941 56.5965 144.842 56.588 145.525C56.5138 145.525 56.4394 145.525 56.3652 145.525C55.851 145.836 54.4301 145.636 53.6917 145.635C51.5755 145.635 49.4586 145.635 47.3423 145.635C46.6472 145.635 45.2044 145.486 44.8916 145.635C44.3529 145.879 44.5332 150.011 44.5574 151.029C44.647 151.142 44.5969 151.059 44.6688 151.249C48.3816 151.249 52.0955 151.249 55.8082 151.249ZM59.8184 143.434C60.821 143.434 61.8235 143.434 62.8261 143.434C64.3626 145.812 66.7391 147.703 68.0616 150.259C68.1823 150.159 68.071 150.267 68.173 150.149C69.0929 149.513 69.7272 148.288 70.4009 147.397C70.9803 146.63 71.8245 145.967 72.406 145.195C72.6526 144.868 73.4502 143.571 73.7427 143.434C74.6708 143.434 75.5994 143.434 76.5275 143.434C76.5275 143.544 76.5275 143.654 76.5275 143.764C75.8238 144.257 75.3722 145.167 74.8566 145.855C73.7667 147.311 72.4998 148.656 71.4034 150.149C71.0347 150.651 69.7015 151.702 69.8439 152.24C70.1217 153.037 70.9391 153.585 71.4034 154.221C72.6905 155.985 73.9938 157.647 75.3022 159.395C75.875 160.16 76.8513 160.861 77.1959 161.817C76.1192 161.817 75.0422 161.817 73.9655 161.817C72.7731 159.781 70.9042 158.076 69.5097 156.203C69.0575 155.595 68.6509 154.555 67.9502 154.221C67.9502 154.258 67.9502 154.295 67.9502 154.332C67.3917 154.776 67.0448 155.517 66.6135 156.093C65.6738 157.347 64.4353 158.472 63.4944 159.725C63.101 160.249 62.5237 161.551 61.9349 161.817C60.8954 161.817 59.8554 161.817 58.8159 161.817C58.8159 161.744 58.8159 161.67 58.8159 161.597C59.5377 161.041 60.0481 160.127 60.5982 159.395C61.787 157.814 63.1808 156.38 64.3856 154.772C65.0152 153.931 66.1429 153.192 66.5021 152.13C66.0177 151.788 65.8504 151.291 65.4995 150.809C64.3107 149.176 62.9413 147.622 61.7121 145.966C61.1496 145.207 60.0359 144.47 59.8184 143.434ZM95.5759 143.434C95.5759 149.561 95.5759 155.69 95.5759 161.817C94.6848 161.817 93.7936 161.817 92.9025 161.817C92.9025 158.111 92.9025 154.405 92.9025 150.699C92.9025 149.143 93.2349 146.854 92.7911 145.525C90.604 145.921 87.7198 145.636 85.3277 145.635C84.5606 145.635 82.9129 145.457 82.5428 145.635C82.1835 146.208 82.4314 149.106 82.4314 150.038C82.4314 153.928 82.4314 157.818 82.4314 161.707C81.7744 161.927 80.6028 161.826 79.758 161.817C79.2661 160.341 79.6466 157.805 79.6466 156.093C79.6466 151.947 79.6466 147.8 79.6466 143.654C79.7361 143.541 79.686 143.624 79.758 143.434C85.03 143.434 90.3039 143.434 95.5759 143.434ZM100.032 143.434C106.267 143.37 113.224 142.404 115.181 146.736C115.404 147.229 115.461 148.355 115.404 148.718C115.1 150.652 114.993 151.958 113.733 152.901C111.388 154.656 106.861 154.366 102.705 154.332C102.705 156.826 102.705 159.322 102.705 161.817C101.814 161.817 100.923 161.817 100.032 161.817C100.032 155.69 100.032 149.561 100.032 143.434ZM153.835 143.434C154.088 148.33 153.835 154.237 153.835 159.505C153.872 159.505 153.909 159.505 153.946 159.505C153.946 159.542 153.946 159.579 153.946 159.615C154.446 159.598 155.308 159.522 155.617 159.725C155.837 160.071 155.729 160.952 155.729 161.487C155.729 162.991 155.729 164.496 155.729 166C154.912 166 154.095 166 153.278 166C153.278 164.606 153.278 163.211 153.278 161.817C148.823 161.817 144.366 161.817 139.911 161.817C139.911 163.211 139.911 164.606 139.911 166C139.094 166 138.277 166 137.46 166C137.46 163.909 137.46 161.817 137.46 159.725C137.497 159.725 137.534 159.725 137.572 159.725C137.572 159.689 137.572 159.652 137.572 159.615C138.048 159.632 138.84 159.697 139.131 159.505C139.869 158.774 139.959 157.746 140.356 156.643C141.623 153.128 141.443 148.299 141.47 143.544C142.489 143.211 144.252 143.434 145.48 143.434C148.265 143.434 151.05 143.434 153.835 143.434ZM157.288 143.434C158.142 143.434 158.996 143.434 159.85 143.434C161.632 147.336 164.546 150.635 166.311 154.552C166.507 154.482 166.419 154.531 166.534 154.442C167.228 153.675 167.437 152.494 167.982 151.58C168.962 149.935 169.87 148.107 170.767 146.406C171.057 145.855 171.823 143.691 172.215 143.434C173.069 143.434 173.923 143.434 174.777 143.434C174.608 144.687 172.83 147.158 172.215 148.277C170.594 151.225 169.114 154.203 167.537 157.084C166.676 158.654 166.03 160.683 164.529 161.597C163.362 162.307 161.31 161.986 159.962 161.707C159.718 161.253 159.725 160.483 159.739 159.725C159.776 159.725 159.813 159.725 159.85 159.725C159.85 159.689 159.85 159.652 159.85 159.615C162.061 160.214 163.231 160.415 164.417 158.625C164.777 158.082 165.241 157.588 165.309 156.753C164.378 156.007 163.951 154.481 163.304 153.451C161.949 151.295 160.679 149.052 159.293 146.846C158.681 145.872 157.454 144.725 157.288 143.434ZM192.155 143.434C197.464 143.434 202.775 143.434 208.084 143.434C208.084 144.131 208.084 144.828 208.084 145.525C206.71 145.978 203.633 145.644 201.957 145.635C201.783 145.499 201.9 145.565 201.734 145.635C201.336 145.904 201.512 148.804 201.512 149.598C201.512 153.634 201.512 157.671 201.512 161.707C200.855 161.927 199.683 161.826 198.838 161.817C198.838 156.46 198.838 151.102 198.838 145.745C198.705 145.65 198.713 145.655 198.615 145.525C196.917 145.857 193.853 145.855 192.155 145.525C192.155 144.828 192.155 144.131 192.155 143.434ZM8.91133 145.195C8.28329 145.574 7.34802 145.425 6.68344 145.745C5.25069 146.435 3.91129 147.728 3.34162 149.268C3.08452 149.962 3.19012 150.569 3.00744 151.359C2.04655 155.517 4.37113 158.196 6.90623 159.395C7.68956 159.766 9.219 160.365 10.5822 160.056C13.188 159.465 14.9761 158.496 16.0405 156.423C16.4405 155.644 16.3725 154.861 16.5975 153.891C16.8078 152.984 16.6844 151.58 16.4861 150.809C15.5259 147.076 13.6785 145.132 8.91133 145.195ZM126.209 145.195C125.621 145.55 124.717 145.478 124.093 145.745C122.641 146.367 121.377 147.609 120.751 149.048C120.312 150.056 120.572 150.981 120.305 152.24C119.556 155.782 121.891 158.387 124.204 159.395C125.035 159.757 126.576 160.386 127.992 160.056C130.581 159.452 132.501 158.393 133.45 156.203C133.737 155.539 133.844 154.747 134.007 154.001C134.178 153.222 134.037 151.856 133.896 151.249C132.936 147.121 131.372 145.127 126.209 145.195ZM25.9546 145.525C25.2867 146.325 25.6024 150.493 25.6204 152.02C26.9667 152.462 30.8016 152.138 32.5269 152.13C32.8207 151.935 33.115 152.054 33.5294 151.91C34.083 151.718 34.734 151.223 35.0889 150.809C35.3971 150.45 35.6216 149.759 35.6459 149.158C35.8502 144.11 30.0949 146.245 25.9546 145.525ZM102.705 152.13C107.069 152.212 111.856 152.858 112.731 149.378C112.879 148.789 112.63 148.173 112.508 147.837C111.58 145.297 109.632 145.635 106.27 145.635C105.35 145.635 103.314 145.396 102.817 145.635C102.584 146 102.705 146.949 102.705 147.507C102.705 149.048 102.705 150.589 102.705 152.13ZM141.916 159.615C144.997 159.615 148.08 159.615 151.162 159.615C151.162 154.956 151.162 150.295 151.162 145.635C150.966 145.566 151.053 145.614 150.939 145.525C149.619 145.762 144.942 145.303 144.255 145.635C143.775 146.432 144.192 149.714 143.921 150.919C143.576 152.451 143.695 154.227 143.253 155.763C142.882 157.047 142.156 158.367 141.916 159.615Z" fill="#7D6214"/>
</g>
<defs>
<clipPath id="clip0">
<rect width="208" height="166" fill="white"/>
</clipPath>
</defs>
</svg>
