<svg width="144" height="116" viewBox="0 0 144 116" fill="none" xmlns="http://www.w3.org/2000/svg">
<g opacity="0.85">
<path fill-rule="evenodd" clip-rule="evenodd" d="M79.7087 0C79.8372 0 79.9657 0 80.0942 0C80.0942 0.0512308 80.0942 0.102615 80.0942 0.153846C78.5615 0.342308 76.9917 1.30354 75.8543 2C72.3555 4.14231 69.0231 6.40877 66.3725 9.38462C65.7341 10.1014 65.2532 10.9075 64.6766 11.6923C64.398 12.0715 63.9565 12.3954 63.6745 12.7692C63.2864 13.2837 62.8937 13.9485 62.0556 14C61.9898 13.8877 61.9159 13.7794 61.8244 13.6923C61.8208 12.7591 61.6079 11.7383 61.9785 11C62.5664 9.82862 64.392 8.09 65.4475 7.30769C65.9711 6.91969 66.4515 6.37738 66.9892 6C69.5652 4.192 72.3937 2.59262 75.3918 1.23077C76.2663 0.833538 77.259 0.578308 78.167 0.307692C78.6616 0.160308 79.3311 0.267385 79.7087 0ZM81.3276 0.461538C81.7186 0.623077 81.837 1.09015 82.0984 1.38462C82.8514 2.23246 83.6846 3.04462 84.4882 3.84615C87.3433 6.69462 91.1407 8.92739 92.6595 13.0769C93.8631 16.3654 91.9871 20.4149 89.1134 20.6154C89.0877 20.5385 89.0621 20.4615 89.0363 20.3846C89.7001 19.3674 89.147 16.1346 88.8051 15.3077C87.7456 12.7457 86.0862 11.2195 83.8715 9.84615C82.6203 9.07031 81.0115 8.55431 80.3254 7.23077C79.6915 6.00754 80.9517 4.69831 81.2505 3.76923C81.5483 2.84338 81.3644 1.47969 81.3276 0.461538ZM54.7323 6C54.6779 7.90615 55.443 10.7852 56.9678 10.9231C57.1866 11.0669 57.4495 10.9535 57.7387 10.9231C58.5056 10.0151 58.8728 10.1868 58.5096 8.69231C58.5867 8.69231 58.6638 8.69231 58.7408 8.69231C58.8791 9.13123 59.2308 9.45539 59.4346 9.84615C59.8847 10.7088 60.1929 11.724 60.4368 12.7692C60.6699 13.7683 60.0426 14.5263 59.8201 15.1538C59.6522 15.6275 59.6143 16.2369 59.5117 16.6923C59.3688 17.3274 59.4706 18.4851 59.5888 19C59.7492 19.6977 59.6426 20.2638 59.8201 20.9231C60.1543 22.1652 60.5695 23.4048 61.0535 24.4615C61.288 24.9737 61.3614 25.8115 61.8244 26.0769C61.8244 25.4872 61.8244 24.8974 61.8244 24.3077C62.0818 23.902 61.8555 23.2455 61.9785 22.6923C62.2437 21.4994 62.4586 19.4363 62.1327 18.1538C62.0475 17.8186 61.8803 17.4686 61.8244 17.0769C63.1325 17.3031 64.1355 18.9365 65.3704 19.3077C65.3704 19.2565 65.3704 19.2051 65.3704 19.1538C64.1151 18.1329 65.4822 15.1562 65.9871 14.3846C67.2335 12.4798 69 11.3883 71.5374 10.7692C72.8892 10.4394 74.3554 10.7337 75.546 10.3077C76.2669 10.0497 76.9559 9.64708 77.5503 9.23077C77.9349 8.96123 78.1952 8.53354 78.7066 8.38462C78.7066 8.43585 78.7066 8.48723 78.7066 8.53846C78.3265 9.13862 78.7371 10.5366 78.7837 11.1538C78.9343 13.1526 79.7374 15.1738 79.3233 17.3846C79.3746 17.3846 79.4261 17.3846 79.4775 17.3846C79.8541 16.7752 82.0395 14.7992 83.1006 15.5385C83.5175 15.8289 83.1077 16.6948 83.4089 16.9231C83.818 15.4015 85.3904 15.0466 87.4175 15.0769C87.3045 15.6211 86.9476 16.1648 86.8008 16.7692C86.5947 17.6178 86.8091 18.9788 86.955 19.6154C87.0063 20.1538 87.0578 20.6923 87.1091 21.2308C87.4053 22.3686 87.6374 23.6597 87.9571 24.7692C88.0997 25.2643 88.2166 27.4289 88.4967 27.6154C88.4967 27.5642 88.4967 27.5128 88.4967 27.4615C89.3407 26.528 89.3566 24.5548 89.4218 23.0769C89.8968 22.7103 90.1698 22.0565 90.6552 21.6923C92.2389 20.5038 94.688 18.4475 93.8929 15.2308C93.7387 14.6923 93.5845 14.1538 93.4303 13.6154C93.7276 13.5137 94.2486 13.5329 94.6637 13.5385C95.3447 14.0752 96.3066 14.0808 96.8222 14.8462C97.3139 15.5762 97.3038 17.1026 98.364 17.2308C99.0399 14.7194 98.9953 12.764 100.291 10.8462C100.502 10.5337 100.629 10.1635 100.985 10C100.985 9.97431 100.985 9.94877 100.985 9.92308C101.011 9.92308 101.036 9.92308 101.062 9.92308C101.049 10.4217 101.12 11.2045 101.447 11.3846C101.447 11.3589 101.447 11.3334 101.447 11.3077C101.813 10.882 101.791 10.1334 102.064 9.61539C102.473 8.84185 104.492 7.00554 105.61 6.92308C105.561 7.52062 105.181 8.03785 104.994 8.53846C104.639 9.48431 104.482 10.5554 104.223 11.5385C103.587 13.948 103.983 16.8808 103.298 19.2308C102.812 20.8958 102.282 22.5091 101.447 23.8462C100.871 24.7706 100.079 25.5977 99.4432 26.4615C98.3681 27.9217 97.1982 29.394 95.5117 30.2308C95.5117 30.282 95.5117 30.3334 95.5117 30.3846C95.6401 30.3846 95.7687 30.3846 95.8972 30.3846C96.2035 30.1855 97.0607 30.3129 97.516 30.3077C98.7122 30.294 100.125 30.1954 101.216 30.4615C101.776 30.5982 102.14 30.4603 102.681 30.6154C103.915 30.9692 105.271 31.2909 106.381 31.8462C108.506 32.9092 110.471 34.5665 112.702 35.3846C115.047 36.2443 115.55 33.9235 116.788 33.7692C116.788 33.8205 116.788 33.8718 116.788 33.9231C116.989 34.2295 116.91 34.6757 117.019 35.0769C117.583 37.1514 115.671 38.7562 114.398 39.5385C114.042 39.7572 113.162 39.8134 112.934 40.1538C115.113 40.2558 116.065 41.1745 115.94 43.3077C115.661 43.4772 115.455 43.7428 115.092 43.8462C114.836 43.9191 114.387 43.7478 114.244 43.9231C114.244 44 114.244 44.0769 114.244 44.1538C115.448 44.8822 116.543 45.7837 118.098 46.1538C119.735 46.5434 120.904 44.8345 121.182 43.7692C121.33 43.2038 121.044 42.8057 120.951 42.4615C121.105 42.4615 121.259 42.4615 121.413 42.4615C121.955 42.8309 122.423 42.8569 122.724 43.4615C122.893 43.8009 122.782 44.0968 122.878 44.5385C123.519 47.5037 120.953 48.2317 118.33 48.0769C118.33 48.1026 118.33 48.1282 118.33 48.1538C118.736 48.4062 118.887 48.6906 118.869 49.3846C118.641 49.566 118.558 49.9048 118.33 50.0769C117.492 50.7097 115.598 51.0903 114.398 50.4615C113.525 50.004 113.11 49.088 112.548 48.3077C112.108 47.6966 111.548 47.1535 111.083 46.5385C110.68 46.0051 110.02 45.6078 109.619 45.0769C109.169 44.4814 108.604 43.8143 108 43.3846C107.692 43.1655 107.324 43.1248 106.998 42.9231C105.931 42.2637 104.859 41.6043 103.76 40.9231C102.855 40.3615 101.522 39.1905 100.368 39C100.427 39.6517 100.779 40.4202 100.6 41.2308C100.081 43.5646 99.2031 44.5334 97.0535 45.2308C96.3993 45.4429 95.1673 45.8362 94.2012 45.6154C92.8775 45.3129 91.1888 44.5234 89.7301 44.7692C89.7301 44.8205 89.7301 44.8718 89.7301 44.9231C90.947 45.6225 91.9677 47.4811 90.8094 49.0769C90.1658 49.9634 88.639 50.1611 87.2633 50.3077C87.2376 50.2565 87.212 50.2051 87.1862 50.1538C87.745 49.7926 87.8327 48.7794 87.6488 47.9231C87.623 47.9231 87.5974 47.9231 87.5717 47.9231C87.5717 47.8974 87.5717 47.8718 87.5717 47.8462C85.4703 47.6357 83.9569 47.7577 83.2548 46.0769C82.8212 45.0392 82.7481 42.7048 83.2548 41.6923C83.5662 41.07 84.1659 40.5892 84.4882 40C85.0242 39.0197 84.9488 38.2486 86.4154 38.1538C86.6645 38.336 87.0163 38.3594 87.2633 38.5385C87.8139 38.9377 88.0934 39.7405 88.6509 40.1538C89.5137 40.7935 90.5952 41.3554 91.7344 41.6923C94.4166 42.4854 96.9842 41.0782 96.9764 38.6154C96.7628 38.3818 96.7032 38.0295 96.5139 37.7692C95.6687 36.6066 93.8691 35.6954 91.8886 35.6923C91.8886 35.6666 91.8886 35.6411 91.8886 35.6154C91.9143 35.6154 91.9399 35.6154 91.9657 35.6154C92.332 35.3323 92.8375 35.3834 93.3533 35.2308C94.8694 34.7822 97.6733 34.3122 99.4432 34.9231C100.766 35.3795 101.173 36.4902 102.218 37.1538C103.383 37.8928 106.52 39.0294 108.617 38.4615C109.467 38.2312 110.21 37.8186 110.929 37.4615C110.929 37.4103 110.929 37.3589 110.929 37.3077C110.878 37.3077 110.826 37.3077 110.775 37.3077C110.518 37.1569 110.055 37.3175 109.696 37.2308C108.736 36.9986 107.663 36.8722 106.844 36.4615C106.167 36.1228 105.809 35.4877 105.225 35.0769C104.359 34.4683 103.133 34.0557 102.064 33.6923C100.449 33.1428 98.5608 33.1715 96.8222 32.7692C96.2055 32.7435 95.5888 32.718 94.9721 32.6923C93.9692 32.4751 91.5357 32.3486 90.501 32.6154C88.6709 33.0874 86.8225 33.5449 85.182 34.1538C83.8636 34.6432 82.5849 34.9195 81.4817 35.6154C80.9227 35.968 80.464 36.5351 79.94 36.9231C78.6273 37.8951 77.2276 38.9442 76.3169 40.3077C75.76 41.1417 75.3126 42.1172 74.8522 43C74.6684 43.3522 74.5997 43.8295 74.3126 44.0769C74.3126 44.1026 74.3126 44.1282 74.3126 44.1538C74.2347 44.23 74.2364 44.078 74.2355 44.0769C73.812 43.5155 73.9227 42.6205 73.6959 41.8462C73.1515 39.988 72.0087 39.1708 69.6102 39.6923C69.6102 39.6411 69.6102 39.5897 69.6102 39.5385C70.0527 39.256 70.358 38.7685 70.7665 38.4615C71.7399 37.7303 72.7451 36.9555 73.773 36.3077C75.7214 35.0797 77.9007 34.3268 80.0942 33.3077C80.0942 33.282 80.0942 33.2565 80.0942 33.2308C79.7763 33.2105 79.3009 33.1503 79.1691 32.9231C79.1949 32.9231 79.2204 32.9231 79.2462 32.9231C79.693 32.5357 80.4249 32.4674 80.9421 32.1538C82.6623 31.1109 85.1718 29.1658 84.0256 26.0769C83.7975 25.462 83.3855 24.8854 83.1006 24.3077C83.0492 24.3077 82.9977 24.3077 82.9464 24.3077C82.9476 28.2697 79.378 28.7738 78.0128 31.3846C77.9614 31.3846 77.91 31.3846 77.8586 31.3846C77.8586 31.0257 77.8586 30.6666 77.8586 30.3077C78.2562 29.7842 78.423 28.8105 78.7837 28.2308C79.3264 27.3583 80.0757 26.5523 80.5567 25.6154C80.7702 25.1994 81.0171 24.3706 80.7109 23.9231C80.5225 23.3723 79.1315 22.4298 78.0899 22.7692C77.6958 22.8977 77.2592 23.2922 76.9336 23.5385C76.58 23.8057 76.5258 24.4669 76.1627 24.6923C76.1022 23.2129 74.8252 22.4377 74.4668 21.1538C74.0534 19.6735 75.0199 18.5645 75.3918 17.6154C75.6484 16.9608 75.3309 16.3949 74.8522 16.2308C73.982 15.9323 73.0164 16.4798 72.4625 16.7692C70.6586 17.7115 69.3301 19.2269 68.7623 21.3846C68.2654 23.2729 69.6044 24.2857 69.8415 25.4615C69.8157 25.4615 69.7901 25.4615 69.7644 25.4615C69.0993 24.766 68.2344 24.6212 67.1434 24.7692C66.8875 25.0978 66.4735 25.2792 66.2954 25.6923C65.8297 26.7728 66.3295 28.0417 66.758 28.6923C68.1616 30.8235 71.2719 31.37 73.8501 32.3077C74.4371 32.5212 76.6934 32.8597 76.9336 33.2308C76.0751 33.3005 75.916 33.6749 75.3918 34C74.7626 34.3902 73.9062 34.5117 73.0792 34.6923C71.7008 34.9932 70.1589 34.4129 69.1477 34.1538C67.5882 33.7545 66.1237 33.7925 64.5995 33.3846C63.5348 33.0997 62.2927 32.5523 61.2847 32.3846C61.2847 32.4103 61.2847 32.4358 61.2847 32.4615C61.9762 33.1295 62.384 33.9977 62.9036 34.8462C64.9268 38.1506 65.5027 41.6877 64.4453 46.3077C64.4967 46.3077 64.5482 46.3077 64.5995 46.3077C64.7392 45.54 65.4442 44.8114 65.8329 44.2308C67.1764 42.2238 68.7999 40.2191 72.077 40.3846C72.2146 40.716 72.3115 41.2283 72.077 41.5385C71.8757 42.1226 71.0784 42.486 70.6895 42.9231C70.0874 43.5997 69.5479 44.4509 69.0706 45.2308C67.5472 47.7198 66.9687 50.8974 66.1413 54.0769C65.9467 54.8243 65.9928 55.6366 65.8329 56.3077C65.8329 56.6666 65.8329 57.0257 65.8329 57.3846C65.5051 58.8754 65.585 61.7694 65.9871 63.1538C66.3081 64.2589 66.7604 65.2709 67.2205 66.2308C67.2718 66.2308 67.3233 66.2308 67.3747 66.2308C67.3747 66.0512 67.3747 65.8718 67.3747 65.6923C67.0933 65.2972 67.204 64.6114 67.0663 64.0769C66.7799 62.9648 66.1004 60.232 66.4496 58.6923C66.6735 57.7051 66.6473 56.63 66.9122 55.6154C67.5659 53.1109 68.1887 50.6183 69.2248 48.5385C70.0775 46.8268 70.6942 45.408 72.4625 44.6154C72.4625 44.718 72.4625 44.8205 72.4625 44.9231C72.172 45.1688 72.1624 45.536 71.9999 45.9231C71.3265 47.528 71.0347 49.4606 72.3083 50.6923C72.6076 50.9817 73.2241 51.4726 74.0042 51.2308C74.1959 51.1714 74.5862 50.9755 74.7751 50.8462C75.9461 50.0442 76.1103 48.4068 76.471 46.7692C76.471 45.9232 76.471 45.0768 76.471 44.2308C77.1992 41.1118 78.6589 39.0112 80.865 37.3846C81.872 36.6423 83.0619 35.6098 84.7194 35.7692C84.7194 35.8462 84.7194 35.9231 84.7194 36C83.9778 36.264 83.3943 37.1683 82.8693 37.6923C81.441 39.1182 80.4771 40.6491 79.8629 42.9231C79.5558 44.0602 79.7696 47.4466 80.0171 48.4615C80.0171 49.4614 80.0171 50.4617 80.0171 51.4615C80.0178 54.4509 79.5069 57.3974 78.3211 59.3077C77.3572 60.8606 75.7621 61.6917 74.1584 62.6154C73.9167 62.7546 72.9051 63.5882 72.7708 63.4615C72.6806 63.1815 73.1163 61.4355 73.2333 60.9231C73.2333 60.5385 73.2333 60.1538 73.2333 59.7692C73.2337 58.1611 73.0944 57.0237 72.3083 56.2308C72.0098 55.9297 71.4298 55.3418 70.6895 55.5385C69.4144 55.8771 69.0418 57.0286 69.379 58.5385C69.379 58.8462 69.379 59.1538 69.379 59.4615C70.1134 62.6183 70.5001 65.2962 71.8458 67.7692C73.2935 70.4295 75.6408 72.6417 78.167 74.2308C80.4739 75.6818 83.0098 76.7043 83.7173 79.7692C83.8497 80.3431 83.5996 80.7677 83.5631 81.2308C83.3832 81.3846 83.2034 81.5385 83.0235 81.6923C81.5947 81.7066 80.8624 81.0237 80.0171 80.4615C79.8325 80.3388 79.2701 79.9835 79.1691 80.0769C79.1434 80.0769 79.1178 80.0769 79.092 80.0769C79.3156 80.5582 79.5208 81.4135 79.4004 82C79.2479 82.7425 79.37 83.2135 79.092 83.7692C78.2021 85.5483 75.5346 86.9688 72.5396 86.3077C72.257 86.3077 71.9742 86.3077 71.6916 86.3077C71.0664 86.1617 70.2579 86.0092 69.6873 85.8462C68.8151 85.5969 66.0872 85.1912 65.7558 84.6154C68.6048 84.7305 69.8362 83.1534 70.6124 81C70.8365 80.378 71.3948 78.0802 70.5353 77.8462C69.8447 77.4606 67.2305 79.7155 66.5267 77.7692C65.9341 77.0309 66.4943 75.4768 66.5267 74.5385C66.501 74.5385 66.4754 74.5385 66.4496 74.5385C66.4496 74.5897 66.4496 74.6411 66.4496 74.6923C66.0323 75.0617 65.9034 75.9065 65.6017 76.3846C64.849 77.5775 62.7878 79.9902 61.2077 80.2308C61.2077 80.2051 61.2077 80.1795 61.2077 80.1538C61.1819 80.1538 61.1563 80.1538 61.1306 80.1538C61.3439 79.7403 61.6777 79.3148 61.8244 78.8462C62.4651 76.798 61.1139 75.122 60.591 73.9231C60.3898 73.4618 60.2606 72.8408 60.1284 72.3846C60.0771 71.8718 60.0256 71.3589 59.9743 70.8462C59.4411 68.5209 59.6818 64.4806 60.1284 62.2308C60.0771 62.2308 60.0256 62.2308 59.9743 62.2308C59.9743 62.2565 59.9743 62.282 59.9743 62.3077C59.4109 62.7911 59.1593 63.7552 58.7408 64.3846C58.0643 65.4023 57.2412 66.4715 56.4282 67.3846C55.1083 68.8669 52.8663 69.4123 52.2655 71.6154C51.9897 72.6268 52.3022 73.9717 52.4967 74.8462C52.5225 75.3846 52.5481 75.9231 52.5738 76.4615C52.7419 77.0157 53.1656 77.4108 53.2676 78C51.2603 78.0451 49.118 76.9552 48.7194 75.3846C48.5224 74.6085 49.1258 74.2131 49.182 73.5385C48.0822 73.5411 47.3437 74.1843 46.6381 74.6154C44.5232 75.9071 41.8665 76.8618 41.1648 79.5385C40.8536 80.7262 41.5349 81.5232 41.6274 82.3846C40.8918 82.2946 40.3889 81.8298 39.8543 81.5385C38.4766 80.7875 37.4588 80.1109 37.0792 78.3846C37.182 77.4103 37.2847 76.4359 37.3875 75.4615C36.6276 75.3379 35.6864 75.0402 35.6145 74.2308C35.2545 73.6491 35.8956 72.8829 36.1541 72.6154C37.635 71.0835 38.9859 71.7203 41.0877 71C41.0877 70.9743 41.0877 70.9488 41.0877 70.9231C40.2142 70.9231 39.3403 70.9231 38.4668 70.9231C38.0693 70.6646 37.4125 70.7791 36.925 70.6154C35.9435 70.2859 34.8772 69.7911 34.0728 69.2308C31.9276 67.7368 30.3392 65.5243 28.8308 63.3846C27.8794 62.0352 26.7445 60.7803 25.7473 59.4615C25.126 58.6398 23.7848 57.5591 22.895 57C22.5279 56.7694 21.6918 56.6277 21.5075 56.2308C21.813 55.7109 21.4331 54.6642 21.5845 54C22.0118 52.1258 22.0551 50.3722 22.6638 48.7692C25.5658 41.1268 31.1471 35.5137 39.4689 33.2308C40.7533 32.8785 42.6354 33.0972 44.0171 33.1538C44.0171 33.2051 44.0171 33.2565 44.0171 33.3077C43.9913 33.3077 43.9657 33.3077 43.94 33.3077C43.347 33.7031 42.4722 33.7351 41.7815 34C40.6915 34.4182 39.503 34.9755 38.4668 35.5385C33.5885 38.1888 29.6468 41.7317 27.1349 46.7692C26.5784 47.8851 26.1267 49.1962 25.7473 50.5385C25.6959 51.0512 25.6444 51.5642 25.5931 52.0769C25.4537 52.6897 25.2872 53.9238 25.516 54.6154C28.9632 53.0325 32.2791 55.9423 34.2269 57.3846C35.6245 58.4194 37.512 60.0185 38.5438 61.3846C39.4509 62.5854 40.2947 63.9185 41.7045 64.6154C43.6138 65.5592 46.4813 65.3009 49.1049 65.3077C49.1551 65.4519 49.1783 65.6086 49.182 65.8462C48.8252 66.2371 48.6502 66.8063 48.334 67.2308C47.7504 68.0142 46.6436 68.4379 46.0985 69.2308C46.1242 69.2308 46.1498 69.2308 46.1755 69.2308C46.4546 68.8743 46.956 68.7255 47.3319 68.4615C47.7845 68.1435 48.1877 67.7271 48.6423 67.3846C49.3574 66.8458 50.4773 65.5791 51.0321 64.8462C51.2376 64.6666 51.4433 64.4872 51.6488 64.3077C53.2132 62.2297 55.7913 59.5374 55.8115 56.0769C55.7602 56.0769 55.7087 56.0769 55.6573 56.0769C55.6214 60.2305 50.967 59.8309 48.9507 61.8462C48.3559 62.4406 48.6203 62.9686 48.334 63.8462C47.4782 63.3951 45.7761 60.4991 45.713 59.2308C46.1379 58.7122 46.3223 58.0005 46.7152 57.4615C46.947 57.1435 47.3328 57.0332 47.486 56.6154C47.4089 56.6154 47.3319 56.6154 47.2548 56.6154C46.4227 57.3897 44.6253 56.522 44.4025 55.8462C44.2297 55.63 44.2379 55.2528 44.2483 54.8462C44.3974 54.6903 44.4241 54.4892 44.5567 54.3077C44.8877 53.8545 45.522 53.6766 46.0985 53.4615C46.0985 53.4358 46.0985 53.4103 46.0985 53.3846C45.7625 53.2702 45.1679 53.3018 44.7109 53.3077C44.4889 53.4377 44.1031 53.3055 43.7858 53.3846C43.1722 53.5375 42.4055 53.6163 41.7815 53.8462C40.4834 54.3242 39.3989 55.0338 38.3126 55.6923C38.3126 55.5897 38.3126 55.4872 38.3126 55.3846C38.6175 55.0018 38.6311 54.4822 38.8522 54C39.2469 53.1392 39.628 52.1851 40.0856 51.3077C41.687 48.2368 43.5848 45.4058 46.4068 43.5385C47.746 42.6523 49.0679 42 51.3404 42C51.7515 42 52.1628 42 52.5738 42C53.3549 42.1829 54.232 42.3169 54.9635 42.6154C55.6038 42.8766 56.2094 43.346 56.9678 43.4615C56.9678 43.4358 56.9678 43.4103 56.9678 43.3846C56.6801 43.1154 56.5155 42.7825 56.274 42.4615C55.489 41.4182 53.8635 40.2438 52.728 39.5385C51.7245 38.9151 50.6013 38.3818 49.5674 37.8462C49.05 37.5782 48.5338 37.4906 48.1027 37.1538C47.1492 36.4088 47.3087 34.7426 46.7152 33.6154C46.2147 32.6651 45.199 32.5882 44.0171 32.3077C43.3748 32.282 42.7322 32.2565 42.0899 32.2308C41.2438 32.054 39.7921 32.2648 39.0064 32.4615C38.304 32.6374 37.8084 32.5706 37.1563 32.7692C35.6907 33.2155 34.2111 33.8602 32.9935 34.6154C32.2484 35.1794 31.5031 35.7437 30.758 36.3077C30.5016 36.5463 30.0096 37.0183 29.6017 36.8462C27.2821 36.5066 28.7298 32.1271 29.7558 31.3846C30.1021 31.134 31.4302 30.7277 31.606 30.4615C29.8493 30.0454 28.3014 28.5643 27.7516 26.9231C26.9721 24.5958 28.4313 22.2835 29.2933 21C29.5933 20.5531 29.8722 19.9232 30.3725 19.6923C30.3725 19.6666 30.3725 19.6411 30.3725 19.6154C30.3983 19.6154 30.4239 19.6154 30.4496 19.6154C30.4651 22.5717 31.9741 24.8778 34.9978 24.6154C35.2485 24.2977 35.4483 24.2951 35.4603 23.6923C34.7444 22.9203 34.4218 21.0166 34.6895 19.7692C34.7666 19.7692 34.8436 19.7692 34.9207 19.7692C35.1417 20.13 35.4226 20.7632 35.7687 21C37.0756 21.894 39.5017 21.5795 41.319 22C44.1366 22.6518 47.0448 22.7182 49.3361 23.8462C50.2476 24.2948 51.2999 24.6926 52.1884 25.2308C52.7488 25.5702 53.4195 26.1655 54.1156 26.3077C54.1156 26.2565 54.1156 26.2051 54.1156 26.1538C53.035 25.3858 51.732 22.8132 51.0321 21.5385C50.3386 20.2754 49.5401 18.9335 48.8736 17.6154C48.243 16.3683 47.7763 15.0518 47.1777 13.8462C46.4205 12.3211 46.0433 10.7043 45.1734 9.30769C44.9651 8.97338 44.5763 8.37246 44.2483 8.15385C44.0185 8.00062 43.7098 8.07815 43.5546 7.84615C46.0608 7.17246 48.7222 8.00215 50.107 9.38462C50.4578 9.73477 50.8327 10.7872 51.1862 11C51.1862 10.9743 51.1862 10.9488 51.1862 10.9231C51.5262 10.53 51.5478 9.95031 51.8029 9.46154C52.2343 8.63508 52.9582 7.88662 53.4989 7.15385C53.8253 6.71154 54.0484 6.07492 54.7323 6ZM53.6531 13.6154C53.5704 13.6732 53.5801 13.6617 53.4218 13.6923C52.9977 14.2655 52.5128 14.7625 52.2655 15.5385C51.5006 17.9382 52.6523 20.4957 53.3447 22C55.1328 25.8846 58.5346 28.7549 62.0556 30.9231C62.8361 31.4037 63.6595 31.5858 64.5224 32C66.1585 32.7852 68.1001 33.0762 70.1498 33.5385C70.5638 33.6318 72.2599 33.7086 72.5396 33.5385C70.7944 33.5072 69.0825 32.9243 67.7601 32.4615C67.4283 32.3454 67.348 32.5375 67.0663 32.4615C66.7304 32.3709 66.1909 32.1769 65.8329 32C61.6373 29.9271 57.1831 26.6066 55.5032 22.0769C55.018 20.7688 55.0405 19.1665 55.0406 17.3846C55.0408 16.4549 55.1573 15.3248 54.8865 14.6154C54.7193 14.1775 54.3342 13.9263 54.0385 13.6154C53.9101 13.6154 53.7815 13.6154 53.6531 13.6154ZM79.0149 17.9231C78.8649 18.2217 78.693 18.37 78.6295 18.7692C78.6808 18.7692 78.7323 18.7692 78.7837 18.7692C78.7837 18.718 78.7837 18.6666 78.7837 18.6154C78.9693 18.4778 79.1537 18.1518 79.0149 17.9231ZM87.7258 31.2308C90.6038 31.2197 92.5011 30.1757 94.2783 29.0769C97.0892 27.3392 99.6496 25.7462 99.5974 21.1538C99.3504 20.9572 99.4184 20.8162 98.9807 20.7692C98.3012 20.4257 96.2095 22.142 95.8201 22.5385C95.3711 22.9955 95.1688 23.5882 94.8179 24.1538C94.2085 25.1363 93.5034 26.0828 92.8136 27C91.5933 28.6225 89.3538 29.7522 87.7258 31C87.7258 31.0769 87.7258 31.1538 87.7258 31.2308ZM63.7516 47.6154C63.8286 47.6154 63.9057 47.6154 63.9828 47.6154C64.038 47.3091 64.2569 47.1275 64.2912 46.9231C64.1883 46.6154 64.0857 46.3077 63.9828 46C63.6331 44.7918 63.4486 43.6015 63.0578 42.5385C62.7832 41.7917 62.7189 41.1889 62.4411 40.4615C61.1522 37.0877 59.0518 33.8502 56.3511 31.8462C55.0929 30.9125 53.8365 29.4878 51.7259 29.4615C51.4867 29.6571 51.3025 29.6651 51.1862 30C50.8599 30.4063 51.1341 31.1122 51.1862 31.6154C51.1349 31.6154 51.0834 31.6154 51.0321 31.6154C50.6673 30.622 49.3135 30.1071 48.334 29.6923C46.6876 28.9949 44.8052 28.5098 42.4753 28.4615C41.8844 28.4358 41.2933 28.4103 40.7023 28.3846C39.9746 28.5429 38.9805 28.596 38.2355 28.6154C38.2355 28.6666 38.2355 28.718 38.2355 28.7692C38.4924 28.7692 38.7495 28.7692 39.0064 28.7692C39.4968 29.0588 40.268 28.9043 40.8565 29.0769C42.2226 29.4775 43.6303 29.8083 44.9421 30.3077C50.3293 32.3588 55.9168 35.6909 58.895 40.1538C60.2434 42.1745 61.3193 45.0883 59.9743 48C59.9485 48 59.9229 48 59.8972 48C59.8972 47.9743 59.8972 47.9488 59.8972 47.9231C59.5117 47.5129 59.1263 47.1025 58.7408 46.6923C57.8357 46.0194 56.7538 45.374 55.6573 44.9231C51.844 43.3551 47.5838 44.2311 45.6359 46.8462C45.1928 47.4411 44.5384 48.0348 44.4025 48.9231C44.4539 48.9231 44.5054 48.9231 44.5567 48.9231C44.9429 48.4558 45.7768 48.3818 46.4068 48.1538C48.1729 47.5145 50.3158 47.5468 52.6509 47.5385C52.6509 47.5897 52.6509 47.6411 52.6509 47.6923C51.7868 47.95 50.2504 49.0805 50.2612 50.2308C50.4615 50.3778 50.6582 50.6575 50.8779 50.7692C52.4864 51.5868 56.9518 51.2058 58.5867 50.6154C58.9524 50.4832 59.4915 50.2963 59.8201 50.0769C60.0708 49.9095 60.0614 49.704 60.4368 49.6154C60.6209 49.9066 60.8614 50.0962 61.2847 50.1538C61.8106 49.3298 61.6375 48.0437 61.516 46.8462C61.3015 44.7312 60.7556 42.5782 60.2826 40.6154C60.3339 40.6154 60.3854 40.6154 60.4368 40.6154C60.7602 41.1132 61.3256 41.4448 61.6702 41.9231C62.7136 43.3717 63.6307 45.3108 63.7516 47.6154ZM97.9785 49.0769C98.0043 48.9488 98.0299 48.8205 98.0556 48.6923C98.0814 48.6923 98.1069 48.6923 98.1327 48.6923C98.1327 48.6666 98.1327 48.6411 98.1327 48.6154C99.9988 48.3306 101.848 49.176 103.22 49.9231C103.617 50.1389 103.86 50.5072 104.377 50.6154C104.2 49.4732 102.879 48.8552 102.912 47.6923C102.963 47.6923 103.015 47.6923 103.066 47.6923C103.47 47.5645 104.931 48.4215 105.302 48.6923C105.454 48.8035 105.803 49.3497 105.996 49.1538C106.07 49.0448 106.071 48.902 106.073 48.6923C105.682 48.3551 105.525 47.6578 105.225 47.2308C104.668 46.4388 103.841 45.502 103.066 44.9231C102.668 44.6257 101.537 44.1214 101.37 43.6923C101.872 43.0408 101.906 42.7382 103.143 42.7692C103.532 43.072 104.117 43.1143 104.531 43.3846C105.216 43.8318 106.358 44.8169 106.844 45.4615C108.013 47.0149 109.192 48.7269 109.927 50.6923C110.241 51.5306 110.283 52.2329 110.544 53.1538C110.748 53.8775 111.218 56.1698 111.006 57.1538C110.904 58.0255 110.801 58.8975 110.698 59.7692C110.647 59.7692 110.595 59.7692 110.544 59.7692C110.486 59.2895 110.237 58.8455 110.081 58.4615C109.478 56.9771 108.989 55.522 108.385 54.1538C108.104 53.5152 107.896 52.3862 107.229 52.1538C107.229 52.1795 107.229 52.2051 107.229 52.2308C107.134 52.3722 107.145 52.6695 107.152 52.9231C107.458 53.3985 107.295 54.1635 107.46 54.7692C107.812 56.0608 108.563 59.1262 107.923 60.7692C107.872 60.7692 107.82 60.7692 107.769 60.7692C107.769 60.718 107.769 60.6666 107.769 60.6154C107.262 60.0169 107.196 57.1863 106.844 56.2308C105.624 52.9205 102.455 49.064 97.9785 49.0769ZM111.315 47.5385C112.323 47.9082 113.124 49.7238 113.627 50.6923C115.91 55.0883 116.262 63.5923 113.936 68.3077C110.899 74.4635 106.256 78.7751 99.2119 80.9231C96.679 81.6954 93.0014 81.5365 90.6552 80.7692C85.1172 78.9582 81.4349 76.4923 77.7815 72.8462C76.6685 71.7354 75.5728 70.6615 74.6209 69.3846C74.2848 68.9337 73.7349 68.5886 73.5417 68C73.593 68 73.6445 68 73.6959 68C74.0633 68.3591 74.5511 68.4866 75.0064 68.7692C76.0037 69.3886 77.0429 69.9775 78.0899 70.6154C82.0181 73.0086 88.9289 76.1726 95.5117 74.3077C97.6113 73.7128 98.9668 73.35 100.677 72.4615C101.304 72.1357 102.188 72.0869 102.218 71.1538C100.612 70.0595 97.576 68.982 96.9764 67C96.5404 65.5585 98.1066 62.9358 98.9036 62.8462C99.7727 63.5297 102.057 63.8366 103.298 64.2308C104.223 64.5249 105.402 64.5435 106.458 64.7692C107.452 64.9815 108.805 64.5503 109.465 64.3077C111.383 63.6025 112.438 62.3992 113.011 60.3846C113.166 59.8391 113.037 59.4498 113.165 58.8462C113.302 58.1957 113.307 56.958 113.165 56.3077C112.995 55.5308 113.195 54.9645 113.011 54.2308C112.725 53.094 112.623 51.8345 112.24 50.6923C111.916 49.7297 111.472 48.6091 111.315 47.5385ZM60.1284 48.6154C60.2843 48.7491 60.2724 48.7805 60.2826 49.0769C60.2569 49.0769 60.2313 49.0769 60.2055 49.0769C60.2055 49.0512 60.2055 49.0257 60.2055 49C60.1378 48.9005 60.1366 48.8103 60.1284 48.6154ZM81.8672 56.6923C82.3397 56.9472 82.3932 57.8125 82.6381 58.3077C83.2125 59.4698 83.7984 60.7358 84.4882 61.8462C86.877 65.6915 90.7847 70.7685 96.8993 70.7692C96.8993 70.8205 96.8993 70.8718 96.8993 70.9231C95.6145 70.9231 94.3297 70.9231 93.0449 70.9231C91.6317 70.7692 90.2183 70.6154 88.8051 70.4615C85.5369 69.6546 82.2259 68.9288 80.4796 66.6154C80.0177 66.0034 79.3057 65.4723 79.1691 64.5385C79.2204 64.5385 79.2719 64.5385 79.3233 64.5385C80.4104 66.0334 83.8136 67.0974 85.8757 67.7692C86.2327 67.8855 88.0362 68.3682 88.2655 68.2308C88.2912 68.2308 88.3168 68.2308 88.3426 68.2308C88.2638 68.1689 88.3214 68.2035 88.1884 68.1538C87.8487 67.8354 87.3056 67.7735 86.8779 67.5385C86.3014 67.2217 85.7157 66.7089 85.182 66.3077C84.7666 65.9954 84.4928 65.4995 84.1798 65.0769C82.3575 62.6163 81.8675 60.7737 81.8672 56.6923ZM44.4025 69.8462C44.0599 70.2092 43.0342 70.3522 42.5524 70.5385C42.5524 70.5642 42.5524 70.5897 42.5524 70.6154C42.6553 70.6154 42.7579 70.6154 42.8608 70.6154C43.314 70.2466 44.3305 70.3548 44.6338 69.8462C44.5567 69.8462 44.4796 69.8462 44.4025 69.8462ZM5.85864 100C9.32219 99.9522 11.3558 100.989 12.6424 103.077C12.9592 103.591 13.163 104.312 13.3362 104.923C13.5216 105.577 13.5605 106.639 13.4132 107.308C13.2873 107.88 13.4265 108.273 13.2591 108.769C12.4328 111.218 10.7445 112.59 8.09418 113.231C7.55966 113.36 6.81006 113.32 6.39825 113.231C5.54088 113.046 4.94623 113.185 4.2398 112.923C2.13561 112.143 0.810623 110.466 0.154144 108.231C-0.116434 107.309 0.249578 104.644 0.462495 104.077C1.05838 102.489 2.35685 101.064 3.93144 100.462C4.49526 100.246 5.34832 100.322 5.85864 100ZM87.0321 100C90.4762 99.952 92.7128 100.982 93.8929 103.154C94.1479 103.623 94.3667 104.264 94.5096 104.769C94.762 105.661 94.7371 107.218 94.5096 108.077C93.69 111.169 92.3938 112.475 89.2676 113.231C88.1124 113.51 86.6344 113.226 85.7987 112.923C84.982 112.627 84.3502 112.453 83.7173 112C81.7682 110.606 80.5396 107.029 81.713 103.923C82.2326 102.548 83.4763 101.191 84.7965 100.615C85.3206 100.387 86.6303 100.261 87.0321 100ZM132.283 101.692C129.373 101.684 129.72 103.124 128.737 104.923C128.294 105.732 127.579 105.891 127.118 106.462C127.092 106.462 127.066 106.462 127.041 106.462C126.964 106.539 127.117 106.538 127.118 106.538C127.412 106.776 127.813 106.854 128.12 107.077C129.383 107.992 130.175 109.765 131.049 111.077C131.439 111.662 132.205 112.326 132.36 113.077C131.615 113.077 130.869 113.077 130.124 113.077C129.571 111.958 128.651 110.948 127.966 109.923C127.379 109.045 126.847 107.952 125.961 107.385C125.585 107.143 125.104 107.072 124.497 107.077C124.497 109.051 124.497 111.026 124.497 113C124.042 113.154 123.231 113.083 122.647 113.077C122.647 108.821 122.647 104.564 122.647 100.308C123.081 100.161 123.856 100.225 124.42 100.231C124.566 100.67 124.497 101.434 124.497 102C124.497 103.256 124.497 104.513 124.497 105.769C124.67 105.829 124.915 105.848 125.191 105.846C125.601 105.554 126.199 105.624 126.501 105.231C128.348 102.828 127.715 100.124 132.205 100.154C132.333 100.528 132.288 101.194 132.283 101.692ZM17.7302 113.077C17.1392 113.077 16.5481 113.077 15.9571 113.077C15.6167 112.045 15.88 110.274 15.88 109.077C15.88 106.154 15.88 103.23 15.88 100.308C16.4215 100.129 17.3628 100.231 18.0385 100.231C19.5288 100.231 21.0193 100.231 22.5096 100.231C22.9051 100.467 23.6016 100.31 24.0513 100.462C24.7365 100.692 25.5128 101.156 25.9015 101.692C26.1343 102.014 26.3965 102.54 26.5182 102.923C26.8025 103.819 26.4984 104.97 26.2098 105.538C24.8272 108.261 21.8246 107.893 17.8072 107.846C17.4711 108.856 17.7245 111.785 17.7302 113.077ZM38.6209 105.692C38.6209 106.179 38.6209 106.667 38.6209 107.154C36.3868 107.268 33.4804 107.154 30.9893 107.154C30.5998 107.906 30.8266 110.358 30.8351 111.462C31.54 111.694 32.7604 111.538 33.6102 111.538C35.5373 111.538 37.4648 111.538 39.3918 111.538C39.5196 111.913 39.4748 112.579 39.4689 113.077C36.0003 113.077 32.5307 113.077 29.0621 113.077C28.7216 112.045 28.985 110.274 28.985 109.077C28.985 106.154 28.985 103.23 28.985 100.308C29.8129 100.035 31.2419 100.231 32.2227 100.231C34.5094 100.231 36.7967 100.231 39.0835 100.231C39.2046 100.586 39.1664 101.215 39.1606 101.692C39.1092 101.692 39.0577 101.692 39.0064 101.692C38.6505 101.91 37.6672 101.769 37.1563 101.769C35.6918 101.769 34.2268 101.769 32.7623 101.769C32.2812 101.769 31.2828 101.665 31.0663 101.769C30.6935 101.94 30.8183 104.827 30.8351 105.538C30.8971 105.617 30.8624 105.56 30.9122 105.692C33.4815 105.692 36.0516 105.692 38.6209 105.692ZM41.3961 100.231C42.0899 100.231 42.7837 100.231 43.4775 100.231C44.5408 101.893 46.1854 103.214 47.1006 105C47.1842 104.93 47.1071 105.006 47.1777 104.923C47.8143 104.479 48.2532 103.623 48.7194 103C49.1204 102.464 49.7046 102.001 50.107 101.462C50.2777 101.233 50.8296 100.327 51.0321 100.231C51.6744 100.231 52.317 100.231 52.9593 100.231C52.9593 100.308 52.9593 100.385 52.9593 100.462C52.4722 100.806 52.1597 101.442 51.8029 101.923C51.0487 102.94 50.1719 103.88 49.4132 104.923C49.1581 105.274 48.2355 106.009 48.334 106.385C48.5263 106.941 49.0919 107.325 49.4132 107.769C50.3039 109.002 51.2058 110.163 52.1113 111.385C52.5077 111.919 53.1833 112.409 53.4218 113.077C52.6767 113.077 51.9314 113.077 51.1862 113.077C50.3611 111.654 49.0677 110.463 48.1027 109.154C47.7898 108.729 47.5084 108.002 47.0235 107.769C47.0235 107.795 47.0235 107.82 47.0235 107.846C46.637 108.157 46.3969 108.675 46.0985 109.077C45.4481 109.953 44.5911 110.74 43.94 111.615C43.6677 111.982 43.2683 112.891 42.8608 113.077C42.1414 113.077 41.4217 113.077 40.7023 113.077C40.7023 113.026 40.7023 112.974 40.7023 112.923C41.2018 112.535 41.5551 111.896 41.9357 111.385C42.7584 110.28 43.7229 109.278 44.5567 108.154C44.9924 107.566 45.7728 107.05 46.0214 106.308C45.6862 106.068 45.5704 105.721 45.3276 105.385C44.5049 104.244 43.5572 103.158 42.7066 102C42.3173 101.47 41.5466 100.955 41.3961 100.231ZM66.1413 100.231C66.1413 104.512 66.1413 108.795 66.1413 113.077C65.5246 113.077 64.9079 113.077 64.2912 113.077C64.2912 110.487 64.2912 107.897 64.2912 105.308C64.2912 104.22 64.5212 102.621 64.2141 101.692C62.7005 101.969 60.7046 101.769 59.0492 101.769C58.5184 101.769 57.3781 101.644 57.122 101.769C56.8733 102.169 57.0449 104.194 57.0449 104.846C57.0449 107.564 57.0449 110.282 57.0449 113C56.5903 113.154 55.7794 113.083 55.1948 113.077C54.8544 112.045 55.1177 110.274 55.1177 109.077C55.1177 106.18 55.1177 103.282 55.1177 100.385C55.1797 100.306 55.145 100.364 55.1948 100.231C58.8432 100.231 62.4929 100.231 66.1413 100.231ZM69.2248 100.231C73.5397 100.187 78.3541 99.5114 79.7087 102.538C79.8631 102.883 79.9024 103.67 79.8629 103.923C79.6521 105.275 79.5781 106.188 78.7066 106.846C77.0834 108.073 73.9512 107.87 71.0749 107.846C71.0749 109.59 71.0749 111.334 71.0749 113.077C70.4582 113.077 69.8415 113.077 69.2248 113.077C69.2248 108.795 69.2248 104.512 69.2248 100.231ZM106.458 100.231C106.633 103.652 106.458 107.78 106.458 111.462C106.484 111.462 106.51 111.462 106.535 111.462C106.535 111.487 106.535 111.513 106.535 111.538C106.881 111.526 107.477 111.473 107.692 111.615C107.844 111.857 107.769 112.473 107.769 112.846C107.769 113.897 107.769 114.949 107.769 116C107.203 116 106.638 116 106.073 116C106.073 115.026 106.073 114.051 106.073 113.077C102.99 113.077 99.9054 113.077 96.8222 113.077C96.8222 114.051 96.8222 115.026 96.8222 116C96.257 116 95.6915 116 95.1263 116C95.1263 114.539 95.1263 113.077 95.1263 111.615C95.152 111.615 95.1776 111.615 95.2034 111.615C95.2034 111.59 95.2034 111.564 95.2034 111.538C95.5331 111.55 96.0812 111.596 96.2826 111.462C96.7934 110.951 96.8557 110.232 97.1306 109.462C98.0074 107.005 97.8826 103.631 97.9014 100.308C98.6063 100.075 99.8268 100.231 100.677 100.231C102.604 100.231 104.531 100.231 106.458 100.231ZM108.848 100.231C109.439 100.231 110.03 100.231 110.621 100.231C111.854 102.958 113.87 105.263 115.092 108C115.227 107.952 115.167 107.985 115.246 107.923C115.726 107.387 115.871 106.562 116.248 105.923C116.927 104.774 117.554 103.496 118.176 102.308C118.377 101.923 118.907 100.411 119.178 100.231C119.769 100.231 120.36 100.231 120.951 100.231C120.833 101.107 119.603 102.834 119.178 103.615C118.056 105.676 117.032 107.757 115.94 109.769C115.345 110.866 114.898 112.284 113.859 112.923C113.051 113.42 111.631 113.195 110.698 113C110.529 112.682 110.534 112.144 110.544 111.615C110.57 111.615 110.595 111.615 110.621 111.615C110.621 111.59 110.621 111.564 110.621 111.538C112.15 111.957 112.961 112.097 113.782 110.846C114.03 110.467 114.351 110.122 114.398 109.538C113.754 109.017 113.459 107.951 113.011 107.231C112.073 105.724 111.195 104.157 110.235 102.615C109.812 101.935 108.963 101.133 108.848 100.231ZM132.976 100.231C136.651 100.231 140.326 100.231 144 100.231C144 100.718 144 101.205 144 101.692C143.049 102.008 140.92 101.775 139.76 101.769C139.639 101.674 139.721 101.72 139.606 101.769C139.33 101.957 139.452 103.984 139.452 104.538C139.452 107.359 139.452 110.18 139.452 113C138.997 113.154 138.186 113.083 137.602 113.077C137.602 109.334 137.602 105.589 137.602 101.846C137.51 101.779 137.515 101.783 137.447 101.692C136.272 101.924 134.152 101.922 132.976 101.692C132.976 101.205 132.976 100.718 132.976 100.231ZM6.16699 101.462C5.73237 101.727 5.08514 101.623 4.62523 101.846C3.63373 102.328 2.70683 103.232 2.3126 104.308C2.13468 104.793 2.20776 105.217 2.08134 105.769C1.41638 108.674 3.02505 110.546 4.77941 111.385C5.32149 111.644 6.37991 112.062 7.32331 111.846C9.12654 111.433 10.364 110.756 11.1006 109.308C11.3774 108.764 11.3303 108.216 11.486 107.538C11.6316 106.905 11.5462 105.923 11.409 105.385C10.7445 102.776 9.46604 101.418 6.16699 101.462ZM87.3404 101.462C86.9334 101.71 86.3074 101.659 85.8757 101.846C84.8713 102.281 83.9967 103.149 83.5631 104.154C83.2591 104.859 83.439 105.505 83.2548 106.385C82.7363 108.86 84.3522 110.68 85.9528 111.385C86.5277 111.638 87.594 112.077 88.5738 111.846C90.3655 111.424 91.6943 110.684 92.3511 109.154C92.55 108.69 92.6235 108.136 92.7366 107.615C92.8548 107.071 92.7571 106.116 92.6595 105.692C91.9954 102.807 90.913 101.414 87.3404 101.462ZM17.9614 101.692C17.4992 102.251 17.7177 105.164 17.7302 106.231C18.6618 106.54 21.3157 106.313 22.5096 106.308C22.713 106.171 22.9166 106.254 23.2034 106.154C23.5865 106.02 24.037 105.674 24.2826 105.385C24.4958 105.133 24.6512 104.651 24.6681 104.231C24.8094 100.703 20.8266 102.196 17.9614 101.692ZM71.0749 106.308C74.095 106.365 77.4077 106.816 78.0128 104.385C78.1153 103.973 77.9434 103.542 77.8586 103.308C77.2168 101.533 75.8684 101.769 73.5417 101.769C72.9053 101.769 71.4966 101.602 71.152 101.769C70.9913 102.024 71.0749 102.687 71.0749 103.077C71.0749 104.154 71.0749 105.231 71.0749 106.308ZM98.2098 111.538C100.342 111.538 102.476 111.538 104.608 111.538C104.608 108.282 104.608 105.025 104.608 101.769C104.473 101.721 104.533 101.754 104.454 101.692C103.54 101.858 100.304 101.537 99.8286 101.769C99.4964 102.326 99.785 104.62 99.5974 105.462C99.3589 106.532 99.4412 107.773 99.1348 108.846C98.8784 109.744 98.3763 110.666 98.2098 111.538Z" fill="white"/>
</g>
</svg>
