<svg xmlns="http://www.w3.org/2000/svg" viewBox="0 0 27 32"><defs><style>.cls-1{fill:#7e6214;}</style></defs><title>dlownload</title><g id="Слой_2" data-name="Слой 2"><g id="Слой_1-2" data-name="Слой 1"><path class="cls-1" d="M25,32H2a2,2,0,0,1-2-2V9A2,2,0,0,1,2,7H7.5a1.5,1.5,0,0,1,0,3H3V29H24V10H19.5a1.5,1.5,0,0,1,0-3H25a2,2,0,0,1,2,2V30A2,2,0,0,1,25,32ZM20,16.5a1.51,1.51,0,0,1-.44,1.06l-5,5a1.5,1.5,0,0,1-2.12,0l-5-5a1.5,1.5,0,1,1,2.12-2.12L12,17.88V1.5a1.5,1.5,0,0,1,3,0V17.88l2.44-2.44A1.5,1.5,0,0,1,20,16.5Z"/></g></g></svg>