<svg xmlns="http://www.w3.org/2000/svg" viewBox="0 0 32 32"><defs><style>.cls-1{fill:#fff;}</style></defs><title>phone</title><g id="Слой_2" data-name="Слой 2"><g id="Слой_1-2" data-name="Слой 1"><path class="cls-1" d="M23.51,32a7.34,7.34,0,0,1-2.45-.42A33.7,33.7,0,0,1,.36,10.33,7.35,7.35,0,0,1,2.89,2.22L4.47,1a5,5,0,0,1,7.47,1.7L14.61,7.9A3.52,3.52,0,0,1,15,9.49a3.48,3.48,0,0,1-.93,2.37l-.55.6a2,2,0,0,0-.3,2.21,9.45,9.45,0,0,0,4.09,4.09,2,2,0,0,0,2.22-.3l.6-.55a3.56,3.56,0,0,1,4-.54L29.28,20a5,5,0,0,1,1.28,8l-1.81,1.83A7.44,7.44,0,0,1,23.51,32ZM7.5,3a2,2,0,0,0-1.21.4L4.71,4.61A4.33,4.33,0,0,0,3.21,9.4,30.69,30.69,0,0,0,22.06,28.75a4.44,4.44,0,0,0,4.56-1l1.8-1.82a2,2,0,0,0-.51-3.19L22.72,20a.53.53,0,0,0-.56.08l-.6.55a5.05,5.05,0,0,1-5.62.75,12.3,12.3,0,0,1-5.38-5.37,5,5,0,0,1,.75-5.62l.55-.6A.51.51,0,0,0,12,9.49a.43.43,0,0,0-.06-.22L9.28,4.09A2,2,0,0,0,7.5,3Z"/></g></g></svg>