<svg xmlns="http://www.w3.org/2000/svg" viewBox="0 0 24.17 23"><defs><style>.cls-1{fill:#10a216;}</style></defs><title>square-check</title><g id="Слой_2" data-name="Слой 2"><g id="Слой_1-2" data-name="Слой 1"><path class="cls-1" d="M19.67,23H3.33A3.3,3.3,0,0,1,1,22a3.36,3.36,0,0,1-1-2.35V3.33A3.35,3.35,0,0,1,3.33,0H16.17a1,1,0,0,1,0,2H3.33A1.33,1.33,0,0,0,2,3.33V19.67A1.33,1.33,0,0,0,3.33,21H19.67A1.33,1.33,0,0,0,21,19.67V11.5a1,1,0,0,1,2,0v8.17A3.35,3.35,0,0,1,19.67,23ZM11.5,14.83a1,1,0,0,1-.71-.29L7.29,11a1,1,0,0,1,0-1.41,1,1,0,0,1,1.42,0l2.79,2.79,11-11a1,1,0,0,1,1.41,1.41L12.21,14.54A1,1,0,0,1,11.5,14.83Z"/></g></g></svg>