<svg width="83" height="93" viewBox="0 0 83 93" fill="none" xmlns="http://www.w3.org/2000/svg">
<path d="M11.6487 86.6426C12.9241 87.4079 20.2365 90.894 39.4526 90.894H43.4489C62.9202 90.894 70.0624 87.2378 71.3378 86.6426C73.5486 85.8774 73.9737 82.7314 73.9737 82.2212C73.9737 82.0512 73.9737 81.371 74.0587 80.3506V79.6704L73.5486 80.0955C71.5929 81.541 69.8924 82.3063 68.1068 82.3063C65.9811 82.3913 64.3656 81.9661 63.1752 81.626L63.0052 81.541C61.7298 81.2009 60.6244 80.9458 59.179 80.9458C57.0533 80.9458 55.7779 81.541 54.3324 82.2212L54.0773 82.3913C53.7372 82.5613 53.3971 82.7314 53.142 82.8164H53.057C52.8019 82.9014 52.6319 82.9865 52.3768 83.0715H52.2917C51.0163 83.5817 49.4008 84.0068 47.1901 84.0918H46.5099C43.5339 84.0918 41.5783 83.2416 39.7927 82.5613L39.7077 82.4763C38.1772 81.7961 36.5617 81.1159 34.436 81.1159C32.0553 81.1159 30.6948 81.7111 29.3344 82.2212H29.2494C29.2494 82.2212 28.9093 82.3913 28.8242 82.3913L28.5691 82.5613C27.2087 83.1565 25.7632 83.8367 23.2124 83.8367H23.1274C20.5766 83.8367 18.706 82.6464 17.0905 81.7111C15.645 80.6907 14.4546 79.9255 12.7541 79.9255C11.7338 79.9255 10.5434 80.1806 9.18294 80.6057L8.92786 80.6907V80.7758C8.92786 81.371 9.01288 81.7961 9.01288 82.0512C9.01288 82.3063 9.09791 82.5613 9.09791 82.8164C9.43802 83.8367 10.2033 85.7924 11.6487 86.6426Z" fill="#C7B29A"/>
<path d="M82.5614 10.2883C82.3914 9.86316 82.1363 9.52305 81.7962 9.01289L81.7112 8.92786V8.75781C81.7112 8.4177 81.6262 8.07759 81.4561 7.90753V7.82251V7.73748C81.4561 7.4824 81.3711 7.22732 81.116 7.05726C80.8609 6.5471 80.6058 6.37704 80.3507 6.20699C80.2657 6.12196 80.1807 6.03693 80.0956 5.95191L80.0106 5.86688H79.9256V5.52677C79.9256 4.50644 79.5005 3.06098 77.7149 2.38076C75.3341 1.61552 59.6041 0 41.4933 0C22.9574 0 7.56742 1.61552 5.35672 2.46579C3.82623 3.06098 3.14601 4.16633 3.14601 5.78185V5.95191L2.89093 6.03693C2.04065 6.63212 1.53049 7.4824 1.36044 8.75781V8.84283L1.27541 8.92786C0.850272 9.43802 0.595191 9.86316 0.510163 10.2033C0.255082 10.7985 0 12.3289 0 16.8354C0.0850272 18.791 2.21071 19.1311 4.16633 19.3012H4.42142V19.5563L6.97223 73.4635C7.14229 76.6095 7.31234 79.1604 7.39737 80.6908V80.7759C7.4824 81.6261 7.4824 82.1363 7.4824 82.2213C7.4824 83.3267 8.50272 86.7278 10.9685 88.0882C12.2439 88.7684 19.8113 92.5096 39.5377 92.5096H43.5339C62.495 92.5096 70.2325 89.1936 72.1031 88.0882C74.5689 86.6428 75.5892 83.4117 75.5892 82.2213C75.5892 81.8812 75.7593 78.3101 76.0144 75.079L76.0994 73.2935L78.4801 19.1311H78.7352C80.6908 18.876 81.9663 18.4509 82.3914 17.7707C82.8165 17.3456 82.9866 17.0054 82.9866 16.6653C83.0716 11.1386 82.7315 10.5434 82.5614 10.2883ZM76.7796 19.4712L74.3138 75.079L74.1437 77.4598L74.0587 77.5448C73.5486 78.055 70.8277 80.6058 68.1918 80.6908C66.2362 80.6908 64.7908 80.3507 63.6004 80.0106L63.3453 79.9256C62.2399 79.5855 60.9645 79.2454 59.264 79.3304C56.5431 79.3304 54.7575 80.0957 53.3971 80.8609C51.8666 81.6261 50.1661 82.3064 47.1901 82.3914C46.935 82.3914 46.68 82.3914 46.5099 82.3914C44.1291 82.3914 42.4286 81.7112 40.8131 81.031L40.558 80.8609C38.8574 80.1807 37.1569 79.5005 34.6911 79.5005C31.8002 79.5005 30.1847 80.1807 28.8242 80.7759L28.3991 80.9459C27.1237 81.5411 25.8483 81.9663 23.5525 82.0513C21.5969 82.1363 20.2365 81.286 18.706 80.3507L18.0258 79.9256C16.5803 79.0753 15.0498 78.14 13.0942 78.2251C11.9888 78.2251 10.7985 78.3951 9.60808 78.8202L9.18294 78.9053V78.4801C9.01289 76.0994 8.92786 74.1437 8.84283 73.2085L6.29202 19.0461L8.07759 19.1311C14.7947 19.5563 27.3788 20.3215 36.3917 20.3215C47.1901 20.3215 69.8074 19.3862 76.5245 19.0461H76.8646L76.7796 19.4712ZM80.6058 17.0905C80.1807 17.0905 49.4859 18.621 36.3066 18.621C31.0349 18.621 21.1718 18.3659 3.7412 17.1755C3.23103 17.1755 1.78557 16.9204 1.78557 16.9204V16.7504C1.70054 14.8798 1.8706 11.5637 2.04065 10.9685C2.21071 10.5434 2.38076 10.2883 2.72087 10.0332C2.97595 9.77813 3.14601 9.60808 3.14601 9.353V8.67278L4.08131 8.75781C18.0258 9.6931 28.9093 10.1182 36.3066 10.1182C47.1901 10.1182 70.3175 9.09791 77.97 8.75781L79.9256 8.67278C79.9256 8.67278 80.0106 9.86316 80.2657 10.0332C80.6058 10.2033 80.7759 10.5434 80.8609 10.8835C80.9459 11.3086 81.201 16.4953 81.201 16.4953L81.116 16.5803C81.116 16.6653 80.8609 17.0054 80.6058 17.0905ZM4.50644 6.97223L4.6765 6.5471C4.76153 6.46207 4.76153 6.46207 4.76153 6.29202V5.78185C4.84655 5.18666 4.93158 4.59147 6.12196 4.16633C7.73748 3.40109 22.9574 1.78557 41.4933 1.78557C60.0292 1.78557 75.2491 3.40109 76.9496 4.08131C78.055 4.59147 78.055 5.18666 78.055 5.86688V5.95191C78.055 6.12196 78.055 6.20699 78.14 6.37704C78.14 6.46207 78.2251 6.5471 78.2251 6.63212L78.3101 6.97223L75.2491 7.14229C75.1641 7.14229 75.1641 7.14229 75.079 7.14229C65.556 7.4824 45.9147 8.33267 36.0515 8.33267C24.2328 8.4177 6.88721 7.22732 4.93158 7.05726H4.59147L4.50644 6.97223ZM9.09791 80.9459V80.6908L9.353 80.6058C10.7134 80.0957 11.8188 79.9256 12.9241 79.9256C14.6247 79.9256 15.8151 80.6058 17.2605 81.7112C18.876 82.6465 20.5766 83.7518 23.2124 83.7518H23.2975C25.8483 83.7518 29.4194 82.1363 29.4194 82.1363C30.7799 81.6261 32.1403 81.116 34.5211 81.116C36.7318 81.116 38.2623 81.7962 39.7927 82.3914L39.8778 82.4764C41.6633 83.1566 43.619 84.0069 46.5949 84.0069H47.2751C49.4859 83.9219 51.0163 83.4967 52.3768 83.0716H52.4618C52.7169 82.9866 52.8869 82.9016 53.142 82.8165H53.227C53.5672 82.6465 54.4174 82.2213 54.4174 82.2213C55.9479 81.5411 57.2233 81.031 59.264 81.031C60.7094 81.031 61.7298 81.286 63.0902 81.6261L63.2603 81.7112C64.4506 82.0513 66.0662 82.3914 68.1918 82.3914C69.8924 82.3064 71.678 81.6261 73.6336 80.2657L74.1437 79.8406C74.1437 79.8406 74.0587 82.1363 74.0587 82.3064C74.0587 82.9016 73.2935 85.6224 71.4229 86.6428C70.1475 87.323 63.0052 90.8091 43.619 90.8091H39.6227C20.4916 90.8091 13.1792 87.323 11.9038 86.6428C10.4584 85.8775 9.6931 83.9219 9.353 82.9016C9.26797 82.6465 9.18294 81.5411 9.09791 80.9459Z" fill="#3A3029"/>
<path d="M31.4175 39.2519L31.165 39.6447C31.0808 40.0937 30.8844 40.5426 30.6038 40.9635C30.3232 41.4124 29.9585 41.8894 29.5095 42.3945H29.5376C29.4534 42.4506 29.3692 42.5067 29.3131 42.5628C29.2289 42.619 29.1447 42.6751 29.0886 42.7312C29.0044 42.8154 28.9203 42.8995 28.8361 42.9557C28.7519 43.1801 28.7519 43.4046 28.808 43.573C28.8641 43.7413 28.9483 43.9097 29.0606 44.0219C29.1728 44.1341 29.3412 44.2183 29.5376 44.2744C29.7059 44.3306 29.9023 44.3306 30.0707 44.2744C30.1549 44.2183 30.2671 44.1341 30.4074 44.0219C30.5196 43.9097 30.6599 43.7694 30.7722 43.6291C30.8844 43.4888 30.9966 43.3485 31.1089 43.2363C31.193 43.124 31.2492 43.0679 31.2772 43.0398L31.2211 43.6852C31.2211 43.7694 31.193 43.8536 31.193 43.9097C31.193 43.9658 31.193 44.05 31.193 44.1061V44.4428C31.165 44.6673 31.1369 45.1162 31.1369 45.7896C31.1369 46.463 31.1089 47.2487 31.1089 48.1185C31.1089 48.9883 31.0808 49.8862 31.0808 50.8122C31.0808 51.7662 31.0808 52.608 31.0808 53.3375V54.8527C31.0808 55.3297 31.0808 55.6664 31.1089 55.8628V56.8449H30.688C30.5757 56.8449 30.4635 56.8449 30.3513 56.8168H30.1268C30.0707 56.8168 30.0426 56.8168 30.0146 56.8168C29.9585 56.8168 29.9304 56.7887 29.9023 56.7887H29.7059C29.5376 56.8449 29.4253 56.9571 29.3131 57.1535C29.2009 57.378 29.1447 57.6025 29.1447 57.8269C29.1447 58.0514 29.2009 58.2759 29.3131 58.4442C29.4253 58.6126 29.6498 58.6968 29.9585 58.6687H32.8766C32.9046 58.6687 32.9327 58.6968 32.9888 58.6968C33.0169 58.6968 33.0449 58.6968 33.1011 58.6968H33.8867C33.9989 58.7248 34.1392 58.7248 34.2515 58.6968C34.3637 58.6968 34.4759 58.6406 34.5882 58.5565C34.7004 58.4723 34.7846 58.332 34.8407 58.1356C34.8968 57.9672 34.9249 57.6866 34.9249 57.3499C34.8688 57.1816 34.8127 57.0693 34.7004 57.0132C34.5882 56.9571 34.3637 56.901 33.9709 56.8449H33.073V56.2556C33.0449 56.1434 33.0449 55.8628 33.0449 55.47V54.067V53.3094C33.0449 52.9727 33.0449 52.636 33.0449 52.2713C33.0449 51.9065 33.073 51.5417 33.073 51.205V50.2791C33.073 49.5776 33.1011 48.8761 33.1011 48.2027V46.3508V45.4529C33.1011 45.2846 33.1011 45.1162 33.1011 44.9479C33.1011 44.8076 33.1291 44.6673 33.1291 44.4989V40.739V40.5426V40.2339C33.1291 40.0095 33.1011 39.8411 33.1011 39.785V39.5325C33.0449 39.4202 32.9888 39.308 32.8766 39.2238C32.7643 39.1396 32.6241 39.0835 32.4557 39.0555C32.2873 39.0274 32.0909 39.0274 31.9226 39.0555C31.7542 39.1116 31.5859 39.1677 31.4175 39.2519Z" fill="#3A3029"/>
<path d="M39.992 57.4902V57.9953C40.0761 58.2198 40.2164 58.3881 40.4128 58.5003C40.5812 58.6126 40.7776 58.6687 41.0021 58.6687C41.1985 58.6687 41.3949 58.6126 41.5633 58.5003C41.7316 58.3881 41.8719 58.2198 41.928 57.9392V57.5463C41.928 57.5183 41.928 57.4622 41.928 57.406C41.928 57.3499 41.9561 57.2658 41.9561 57.1535C41.9 57.0132 41.9 56.8729 41.9 56.7607V56.3679V56.2556C41.9 56.2276 41.8719 56.1995 41.8719 56.1995C41.8719 56.1995 41.8719 56.1715 41.8719 56.1434L41.7597 52.8044V52.608C41.7597 52.5799 41.7316 52.5518 41.7316 52.4957C41.7316 52.4396 41.7316 52.3835 41.7316 52.3274V51.7381H43.0504C43.0784 51.9626 43.1065 52.1029 43.1626 52.159C43.1626 52.2151 43.1907 52.2713 43.2468 52.2993C43.4432 52.7483 43.6396 53.1972 43.836 53.59C44.0324 53.9829 44.2289 54.3757 44.4533 54.7124V54.6843C44.6497 55.1333 44.8462 55.5542 45.0706 55.947C45.267 56.3398 45.4635 56.7046 45.6599 57.0413V57.0132L45.7721 57.1816L45.9685 57.5183C45.9966 57.6025 46.0246 57.6866 46.0527 57.7428C46.0808 57.7989 46.1369 57.883 46.2491 57.9953C46.2491 58.0514 46.2491 58.0514 46.2772 58.0514C46.3052 58.1636 46.3613 58.2478 46.4175 58.3601C46.4736 58.4723 46.5297 58.5565 46.6419 58.6126C46.7261 58.6968 46.8383 58.7529 46.9786 58.7529C47.1189 58.7809 47.2873 58.7529 47.5118 58.6406C47.9046 58.4723 48.101 58.2478 48.101 57.9111C48.101 57.6025 48.0449 57.3499 47.9046 57.1255L47.8765 57.1535C47.8485 57.1255 47.8204 57.0693 47.8204 57.0132C47.8204 56.9571 47.7923 56.901 47.7643 56.8449L47.4556 56.3959C47.3995 56.3398 47.3434 56.2556 47.2873 56.1434C47.2312 56.0312 47.1751 55.947 47.147 55.8628L46.9506 55.498C46.7542 55.2174 46.6139 54.9369 46.5297 54.7124L46.2772 54.1793V54.2073L45.9124 53.4217C45.6599 53.0569 45.4635 52.6641 45.2951 52.2713C45.1267 51.8784 44.9023 51.3172 44.6217 50.5877L44.8181 50.1107V50.0265C44.8181 49.9985 44.8462 49.9424 44.8742 49.8582C44.8742 49.8021 44.9303 49.6898 45.0145 49.5215C45.0706 49.3251 45.1548 49.1006 45.267 48.8761C45.3793 48.6516 45.4635 48.3991 45.5757 48.1746C45.6037 48.0624 45.6599 47.9221 45.716 47.7538C45.7721 47.5854 45.8563 47.4451 45.9124 47.3048C46.1088 46.8559 46.3052 46.4069 46.4736 45.9299C46.6419 45.4529 46.8103 45.032 46.9506 44.6953V44.7234C47.0067 44.6392 47.0909 44.527 47.1751 44.4147C47.2312 44.3025 47.2592 44.1903 47.2592 44.05C47.2592 43.9377 47.1751 43.7974 47.0628 43.6852C46.9225 43.573 46.698 43.4607 46.3894 43.3485C46.1649 43.2924 45.9966 43.2643 45.8563 43.2924C45.716 43.3485 45.5757 43.4607 45.4354 43.6852C45.267 43.9097 45.0987 44.2464 44.9303 44.6953C44.762 45.1443 44.5375 45.7054 44.2569 46.435L42.854 49.9143H42.6295C42.4331 49.9143 42.2647 49.8862 42.1244 49.8862H41.6755V49.5776V47.9502V46.9962C41.6755 46.6875 41.6755 46.3789 41.7035 46.0422C41.7035 45.7896 41.6755 45.4249 41.6755 44.9759C41.6755 44.527 41.6755 44.1622 41.6755 43.8255V42.0297V40.9074V40.262C41.6755 39.9534 41.5913 39.7008 41.3668 39.4764C41.1424 39.2519 40.8898 39.1396 40.6373 39.1396C40.4128 39.1396 40.2445 39.2238 40.0761 39.3641C39.9078 39.5044 39.7955 39.7289 39.7394 40.0656C39.7394 40.1498 39.7114 40.3462 39.7114 40.6548C39.7114 40.9915 39.7114 41.3282 39.7114 41.7211C39.7114 42.2261 39.7114 42.7593 39.7114 43.2924C39.7114 43.8536 39.7394 44.2183 39.7675 44.3867C39.7675 44.6111 39.7955 44.8076 39.7955 44.9759V45.5652C39.7955 45.6213 39.7675 45.6493 39.7675 45.6774C39.7675 45.7054 39.7675 45.7335 39.7675 45.7335V47.6415C39.7675 47.6976 39.7394 47.7257 39.7394 47.7538C39.7394 47.8099 39.7394 47.8379 39.7394 47.866V48.3991V48.9603C39.7394 49.1848 39.7394 49.3812 39.7675 49.5215C39.7675 49.6618 39.7675 49.8301 39.7675 50.0546C39.7675 50.2791 39.7955 50.4474 39.8236 50.5316C39.8236 50.5877 39.8236 50.5877 39.8236 50.5877L39.8517 50.6158C39.8517 50.9525 39.8517 51.3453 39.8517 51.7942C39.8517 52.2712 39.8797 52.6641 39.9078 53.0008L39.992 56.1434C39.992 56.2276 39.992 56.2837 39.992 56.3398C39.992 56.3959 40.02 56.424 40.02 56.4801C40.02 56.5923 40.0481 56.7046 40.0481 56.7887V57.1255C40.02 57.1535 40.02 57.1816 40.02 57.2096V57.3219C40.02 57.378 39.992 57.406 39.992 57.406C39.992 57.4341 39.992 57.4622 39.992 57.4902Z" fill="#3A3029"/>
<path d="M54.8242 60.2119V60.9976C54.8242 61.3343 54.8242 61.5868 54.8523 61.7832C54.7961 62.4567 54.712 62.9898 54.5436 63.3546C54.3752 63.7193 54.0105 63.8877 53.4493 63.8877C53.1687 63.9438 52.9442 63.9157 52.7198 63.8316C52.4953 63.7474 52.2708 63.6351 52.1025 63.4948C51.9061 63.3545 51.7658 63.1862 51.6535 63.0178C51.5413 62.8495 51.5132 62.6531 51.5132 62.4847V62.3444V62.0358C51.5132 61.8955 51.4852 61.7552 51.4852 61.643V61.5588C51.4852 61.4185 51.4852 61.2221 51.4852 60.9976C51.4571 60.7731 51.2888 60.5487 50.9801 60.3803C50.7556 60.3242 50.5592 60.3242 50.3909 60.3803C50.2225 60.4645 50.0542 60.5767 49.9419 60.717C49.8016 60.8573 49.6894 61.0257 49.6333 61.194C49.5491 61.3624 49.521 61.5307 49.521 61.643V62.0638C49.521 62.2883 49.5491 62.5689 49.6052 62.9056C49.6613 63.2423 49.7455 63.579 49.9139 63.9438C50.0542 64.3086 50.2786 64.6453 50.5873 64.9259C50.8959 65.2345 51.2888 65.459 51.7938 65.6273C52.2708 65.7957 52.8881 65.8518 53.6177 65.7957C53.9824 65.7957 54.3472 65.7396 54.74 65.6834C55.1048 65.6273 55.4415 65.487 55.7221 65.2626C56.0027 65.0381 56.2552 64.7294 56.4516 64.2805C56.62 63.8316 56.7322 63.2423 56.7322 62.4567V62.0919C56.7322 61.9235 56.7041 61.7552 56.7041 61.6149V61.0537V60.8292C56.7041 60.7451 56.7041 60.6048 56.7322 60.4364V58.6126L56.6761 57.4902C56.6761 57.4622 56.648 57.406 56.648 57.3499C56.648 57.2938 56.648 57.2377 56.648 57.1816C56.62 57.0413 56.62 56.901 56.62 56.7607V56.3679C56.62 56.3117 56.5919 56.1995 56.5919 56.0031C56.5919 55.8067 56.5919 55.5822 56.5919 55.3297V54.544V53.9267C56.5919 53.7023 56.62 53.3094 56.648 52.7483C56.6761 52.1871 56.7041 51.5978 56.7322 50.9525C56.7603 50.3352 56.7883 49.7179 56.8164 49.1006C56.8164 48.5113 56.8444 48.0343 56.8444 47.6696C56.7883 47.417 56.7603 47.1365 56.7603 46.7997C56.7322 46.4911 56.7041 46.1825 56.6761 45.8457C56.6761 45.7896 56.648 45.7616 56.648 45.7054C56.648 45.6774 56.648 45.6213 56.648 45.5652C56.62 45.4529 56.62 45.3407 56.62 45.2284V44.9198V44.2744C56.62 44.2744 56.62 44.2464 56.62 44.2183C56.62 44.2183 56.648 44.1903 56.648 44.1341C56.648 44.1341 56.648 44.1061 56.648 44.05C56.648 44.0219 56.6761 43.9939 56.6761 43.9377C56.7041 43.7974 56.6761 43.6571 56.62 43.4888C56.5639 43.3485 56.4236 43.2363 56.2271 43.124L55.8904 43.0118H55.9185C55.8063 42.9837 55.694 42.9837 55.6098 43.0398C55.4976 43.096 55.4415 43.1801 55.3854 43.2643C55.3293 43.3766 55.2731 43.4607 55.217 43.573C55.1609 43.6852 55.1328 43.7413 55.1328 43.7974C54.9645 43.5449 54.7681 43.3766 54.5717 43.3204C54.3752 43.2643 54.1508 43.1801 53.8982 43.0679H53.309C53.2529 43.0679 53.1968 43.096 53.1407 43.096C53.0565 43.096 53.0004 43.096 52.9442 43.096L52.0744 43.1801L51.9902 43.2082C51.878 43.2082 51.7658 43.2363 51.6255 43.2643C51.401 43.2924 51.1204 43.3766 50.8398 43.4888C50.5592 43.601 50.2506 43.8255 49.9419 44.1341C49.8297 44.3586 49.7175 44.5831 49.6613 44.8637C49.6052 45.1443 49.5491 45.4529 49.521 45.7335C49.4649 46.0422 49.4369 46.3508 49.4369 46.6314C49.4369 46.94 49.4369 47.2206 49.4369 47.4451C49.3808 47.6135 49.3808 47.7818 49.3808 48.0063V48.5675V49.1006C49.3808 49.3251 49.3808 49.4934 49.4369 49.6337C49.4369 49.774 49.4649 50.0265 49.4649 50.3913V51.5978V53.0288C49.4649 53.1411 49.4369 53.2253 49.4369 53.3094C49.4369 53.3936 49.4369 53.4778 49.4369 53.562C49.4369 54.2354 49.4369 54.8527 49.4649 55.4419C49.493 56.0312 49.5491 56.452 49.6613 56.7046C49.6613 56.7887 49.6613 56.8449 49.6613 56.8449C49.6613 56.8729 49.6894 56.901 49.6894 56.929C49.7736 57.3499 49.9139 57.6586 50.0822 57.855C50.2506 58.0514 50.475 58.2198 50.7276 58.3601C51.0923 58.5565 51.4852 58.6968 51.9061 58.7529C52.2989 58.809 52.6356 58.8651 52.8601 58.8932H53.0284C53.3651 58.8932 53.7018 58.8371 54.0385 58.6687C54.3472 58.5003 54.5997 58.3039 54.8242 58.0795V58.5845V59.1738V59.763V60.2119ZM54.9084 48.4272V48.9883C54.9084 49.2128 54.8803 49.5495 54.8803 50.0265C54.8523 50.5316 54.8242 51.0367 54.8242 51.5978C54.7961 52.159 54.7681 52.7202 54.7681 53.2814C54.74 53.8426 54.712 54.2634 54.712 54.6001C54.712 54.6563 54.6839 54.7124 54.6839 54.7685C54.6839 54.8527 54.6558 54.9369 54.6558 55.021L54.6839 54.993C54.6278 55.1613 54.5997 55.3577 54.5997 55.5822C54.5717 55.9189 54.4314 56.2276 54.1508 56.5362C53.8702 56.8449 53.4493 56.9852 52.8601 56.9852C52.6917 56.9852 52.4672 56.9571 52.1866 56.901C51.9061 56.8449 51.7377 56.7607 51.6255 56.5923C51.5132 56.424 51.4291 56.2276 51.3729 56.0031C51.3168 55.7786 51.3168 55.5542 51.3168 55.2736C51.3168 55.021 51.3168 54.7685 51.3168 54.4879V52.0187V51.2611V50.4755C51.3168 50.2229 51.2888 49.9985 51.2888 49.774C51.2888 49.5776 51.2607 49.4092 51.2607 49.297C51.2607 49.2409 51.2607 49.1567 51.2607 49.0164C51.2607 48.8761 51.2888 48.7358 51.2888 48.5675V48.0905V47.7257C51.2888 47.6135 51.3168 47.4451 51.3168 47.2206V46.6875C51.3168 46.3508 51.3729 46.0141 51.4852 45.6774C51.5974 45.3407 51.7938 45.1443 52.1025 45.032H52.355C52.4392 45.032 52.5234 45.032 52.5795 45.004C52.6356 45.004 52.8039 44.9759 53.0284 44.9479C53.2529 44.9479 53.3932 44.9479 53.4774 44.9759C53.8421 44.9759 54.0947 45.004 54.2069 45.0601C54.3191 45.1443 54.4033 45.2284 54.4594 45.3126C54.5436 45.4529 54.6278 45.6213 54.6839 45.8457C54.74 46.0702 54.7681 46.3227 54.8242 46.5753C54.8523 46.8559 54.8803 47.1084 54.9084 47.389C54.9084 47.6696 54.9364 47.9221 54.9364 48.1466C54.9364 48.2027 54.9084 48.2588 54.9084 48.3149C54.9084 48.3711 54.9084 48.3991 54.9084 48.4272Z" fill="#3A3029"/>
</svg>
