<svg xmlns="http://www.w3.org/2000/svg" viewBox="0 0 22 22"><defs><style>.cls-1{opacity:0.35;}.cls-2{fill:#fff;}</style></defs><title>insta</title><g id="Слой_2" data-name="Слой 2"><g id="Слой_1-2" data-name="Слой 1"><g class="cls-1"><path class="cls-2" d="M2.78,1.84a1,1,0,0,0-.95.94V19.22a1,1,0,0,0,.95.94H19.22a1,1,0,0,0,1-.94V2.78a1,1,0,0,0-1-.94ZM0,2.78A2.78,2.78,0,0,1,2.78,0H19.22A2.78,2.78,0,0,1,22,2.78V19.22A2.78,2.78,0,0,1,19.22,22H2.78A2.78,2.78,0,0,1,0,19.22Z"/><path class="cls-2" d="M7.77,6.14a5.81,5.81,0,0,1,7.29.8,5.82,5.82,0,0,1-1.94,9.46,5.69,5.69,0,0,1-3.36.31,5.75,5.75,0,0,1-3-1.61,5.82,5.82,0,0,1,1-9ZM11,7A4,4,0,0,0,7.27,9.45a4,4,0,0,0,.82,4.36,4,4,0,0,0,5.66-5.58A4,4,0,0,0,11,7Z"/><path class="cls-2" d="M17.21,3.87a.85.85,0,1,0,.6.25A.86.86,0,0,0,17.21,3.87Z"/><path class="cls-2" d="M16.28,3.8a1.31,1.31,0,1,1,1.85,1.85A1.31,1.31,0,1,1,16.28,3.8Zm.93.53a.41.41,0,0,0-.4.4.39.39,0,0,0,.4.39A.39.39,0,0,0,17.48,5a.39.39,0,0,0,.12-.28.36.36,0,0,0-.12-.28A.36.36,0,0,0,17.21,4.33Z"/></g></g></g></svg>