<svg xmlns="http://www.w3.org/2000/svg" viewBox="0 0 22 22"><defs><style>.cls-1{fill:#fff;}</style></defs><title>papers</title><g id="Слой_2" data-name="Слой 2"><g id="Слой_1-2" data-name="Слой 1"><path class="cls-1" d="M11,22a1,1,0,0,1-.45-.11l-10-5a1,1,0,1,1,.9-1.78L11,19.88l9.55-4.77a1,1,0,1,1,.9,1.78l-10,5A1,1,0,0,1,11,22Zm0-5a1,1,0,0,1-.45-.11l-10-5a1,1,0,0,1,.9-1.78L11,14.88l9.55-4.77a1,1,0,1,1,.9,1.78l-10,5A1,1,0,0,1,11,17Zm0-5a1,1,0,0,1-.45-.11l-10-5a1,1,0,0,1,0-1.78l10-5a1,1,0,0,1,.9,0l10,5a1,1,0,0,1,0,1.78l-10,5A1,1,0,0,1,11,12ZM3.24,6,11,9.88,18.76,6,11,2.12Z"/></g></g></svg>