<svg xmlns="http://www.w3.org/2000/svg" viewBox="0 0 22 22"><defs><style>.cls-1{opacity:0.35;}.cls-2{fill:#fff;}</style></defs><title>fb</title><g id="Слой_2" data-name="Слой 2"><g id="Слой_1-2" data-name="Слой 1"><g class="cls-1"><path class="cls-2" d="M2.78,1.84a1,1,0,0,0-.95.94V19.22a1,1,0,0,0,.95.94H19.22a1,1,0,0,0,1-.94V2.78a1,1,0,0,0-1-.94ZM0,2.78A2.78,2.78,0,0,1,2.78,0H19.22A2.78,2.78,0,0,1,22,2.78V19.22A2.78,2.78,0,0,1,19.22,22H2.78A2.78,2.78,0,0,1,0,19.22Z"/><path class="cls-2" d="M11.93,18V11.56H14.1l.31-2.48H11.93V7.52c0-.77.23-1.24,1.24-1.24h1.32V4H12.55A3,3,0,0,0,9.37,7.37V9.15H7.43v2.41H9.37V18Z"/></g></g></g></svg>