<svg xmlns="http://www.w3.org/2000/svg" viewBox="0 0 20 24"><defs><style>.cls-1{fill:#7e6214;}</style></defs><title>geo</title><g id="Слой_2" data-name="Слой 2"><g id="Слой_1-2" data-name="Слой 1"><path class="cls-1" d="M10,24a1,1,0,0,1-.55-.17C9.06,23.58,0,17.45,0,10A10,10,0,0,1,17.07,2.93,9.93,9.93,0,0,1,20,10c0,7.45-9.06,13.58-9.45,13.83A1,1,0,0,1,10,24ZM10,2a8,8,0,0,0-8,8c0,5.41,6.1,10.36,8,11.77,1.9-1.41,8-6.36,8-11.77a8,8,0,0,0-8-8Z"/><path class="cls-1" d="M10,14a4,4,0,1,1,4-4A4,4,0,0,1,10,14Zm0-6a2,2,0,1,0,2,2A2,2,0,0,0,10,8Z"/></g></g></svg>