<svg xmlns="http://www.w3.org/2000/svg" viewBox="0 0 18 22"><defs><style>.cls-1{fill:#7e6214;}</style></defs><title>order</title><g id="Слой_2" data-name="Слой 2"><g id="Слой_1-2" data-name="Слой 1"><path class="cls-1" d="M15,22H3a3,3,0,0,1-3-3V3A3,3,0,0,1,3,0h7a1,1,0,0,1,.38.08,1,1,0,0,1,.33.21l7,7a1,1,0,0,1,.21.33A1,1,0,0,1,18,8h0V19a3,3,0,0,1-3,3ZM3,2a1.05,1.05,0,0,0-.71.29A1.05,1.05,0,0,0,2,3V19a1.05,1.05,0,0,0,.29.71A1.05,1.05,0,0,0,3,20H15a1,1,0,0,0,1-1V9H10A1,1,0,0,1,9,8V2Zm8,5h3.59L11,3.41Z"/></g></g></svg>