<svg xmlns="http://www.w3.org/2000/svg" viewBox="0 0 22 22"><defs><style>.cls-1{opacity:0.35;}.cls-2{fill:#fff;}</style></defs><title>vk</title><g id="Слой_2" data-name="Слой 2"><g id="Слой_1-2" data-name="Слой 1"><g class="cls-1"><path class="cls-2" d="M2.67,1.57a1.11,1.11,0,0,0-1.1,1.11V19.32a1.11,1.11,0,0,0,1.1,1.11H19.33a1.11,1.11,0,0,0,1.1-1.11V2.68a1.11,1.11,0,0,0-1.1-1.11ZM0,2.68A2.68,2.68,0,0,1,2.67,0H19.33A2.68,2.68,0,0,1,22,2.68V19.32A2.68,2.68,0,0,1,19.33,22H2.67A2.68,2.68,0,0,1,0,19.32Z"/><path class="cls-2" d="M10.69,7.32a4.22,4.22,0,0,0-1.58.16c-.23.08-.39.31-.31.31a.8.8,0,0,1,.55.32A1.64,1.64,0,0,1,9.59,9s.07,1.73-.32,1.89-.55-.16-1.33-1.49A9.9,9.9,0,0,1,7.23,8l-.16-.24H4.87a.37.37,0,0,0-.31.16.39.39,0,0,0,0,.32,19.31,19.31,0,0,0,3.06,5A4.55,4.55,0,0,0,9.08,14.3a4.46,4.46,0,0,0,1.76.42h.79a.47.47,0,0,0,.31-.16c.08-.08.08-.31.08-.31s0-1,.47-1.18,1.1.94,1.73,1.41a1.23,1.23,0,0,0,.87.24h1.72s1-.08.48-.79A7.49,7.49,0,0,0,16,12.44c-1.1-.95-.94-.79.39-2.52s1.1-1.73.94-2-.62-.16-.62-.16h-2.2c-.08,0-.16.16-.16.16a13.15,13.15,0,0,1-.71,1.58c-.86,1.41-1.26,1.49-1.41,1.41S12,10,12,9.52s.24-2-.39-2.12Z"/></g></g></g></svg>