<?xml version="1.0" encoding="utf-8"?>
<!-- Generator: Adobe Illustrator 17.1.0, SVG Export Plug-In . SVG Version: 6.00 Build 0)  -->
<!DOCTYPE svg PUBLIC "-//W3C//DTD SVG 1.1//EN" "http://www.w3.org/Graphics/SVG/1.1/DTD/svg11.dtd">
<svg version="1.1" id="Layer_1" xmlns="http://www.w3.org/2000/svg" xmlns:xlink="http://www.w3.org/1999/xlink" x="0px" y="0px"
	 viewBox="0 0 22 22" enable-background="new 0 0 22 22" xml:space="preserve">
<g>
	<g>
		<g>
			<path fill="#FFFFFF" d="M11,2c2.9,0,3.3,0,4.4,0.1c1.1,0,1.6,0.2,2,0.4c0.5,0.2,0.9,0.4,1.3,0.8c0.4,0.4,0.6,0.7,0.8,1.3
				c0.2,0.4,0.3,1,0.4,2C20,7.7,20,8.1,20,11s0,3.3-0.1,4.4c0,1.1-0.2,1.6-0.4,2c-0.2,0.5-0.4,0.9-0.8,1.3c-0.4,0.4-0.7,0.6-1.3,0.8
				c-0.4,0.2-1,0.3-2,0.4C14.3,20,13.9,20,11,20c-2.9,0-3.3,0-4.4-0.1c-1.1,0-1.6-0.2-2-0.4c-0.5-0.2-0.9-0.4-1.3-0.8
				c-0.4-0.4-0.6-0.7-0.8-1.3c-0.2-0.4-0.3-1-0.4-2C2,14.3,2,13.9,2,11s0-3.3,0.1-4.4c0-1.1,0.2-1.6,0.4-2C2.7,4,2.9,3.7,3.3,3.3
				C3.7,2.9,4,2.7,4.6,2.5c0.4-0.2,1-0.3,2-0.4C7.7,2,8.1,2,11,2 M11,0.1c-3,0-3.3,0-4.5,0.1c-1.2,0.1-2,0.2-2.7,0.5
				C3.1,0.9,2.5,1.3,1.9,1.9c-0.6,0.6-1,1.2-1.3,1.9C0.4,4.5,0.2,5.3,0.1,6.5C0.1,7.7,0.1,8,0.1,11c0,3,0,3.3,0.1,4.5
				c0.1,1.2,0.2,2,0.5,2.7c0.3,0.7,0.7,1.3,1.3,1.9c0.6,0.6,1.2,1,1.9,1.3c0.7,0.3,1.5,0.5,2.7,0.5C7.7,22,8,22,11,22
				c3,0,3.3,0,4.5-0.1c1.2-0.1,2-0.2,2.7-0.5c0.7-0.3,1.3-0.7,1.9-1.3c0.6-0.6,1-1.2,1.3-1.9c0.3-0.7,0.5-1.5,0.5-2.7
				C22,14.4,22,14,22,11s0-3.3-0.1-4.5c-0.1-1.2-0.2-2-0.5-2.7c-0.3-0.7-0.7-1.3-1.3-1.9c-0.6-0.6-1.2-1-1.9-1.3
				c-0.7-0.3-1.5-0.5-2.7-0.5C14.4,0.1,14,0.1,11,0.1L11,0.1z"/>
			<path fill="#FFFFFF" d="M11,5.4c-3.1,0-5.6,2.5-5.6,5.6s2.5,5.6,5.6,5.6c3.1,0,5.6-2.5,5.6-5.6S14.1,5.4,11,5.4z M11,14.7
				c-2,0-3.7-1.6-3.7-3.7S9,7.4,11,7.4S14.7,9,14.7,11S13,14.7,11,14.7z"/>
			<circle fill="#FFFFFF" cx="16.9" cy="5.2" r="1.3"/>
		</g>
	</g>
</g>
</svg>
