<?xml version="1.0" encoding="utf-8"?>
<!-- Generator: Adobe Illustrator 17.1.0, SVG Export Plug-In . SVG Version: 6.00 Build 0)  -->
<!DOCTYPE svg PUBLIC "-//W3C//DTD SVG 1.1//EN" "http://www.w3.org/Graphics/SVG/1.1/DTD/svg11.dtd">
<svg version="1.1" id="Layer_1" xmlns="http://www.w3.org/2000/svg" xmlns:xlink="http://www.w3.org/1999/xlink" x="0px" y="0px"
	 viewBox="0 0 22 22" enable-background="new 0 0 22 22" xml:space="preserve">
<g>
	<g>
		<g>
			<path fill="#FFFFFF" d="M11,2c2.9,0,3.3,0,4.4,0.1c1.1,0,1.6,0.2,2,0.4c0.5,0.2,0.9,0.4,1.3,0.8s0.6,0.7,0.8,1.3
				c0.2,0.4,0.3,1,0.4,2C20,7.7,20,8.1,20,11s0,3.3-0.1,4.4c0,1.1-0.2,1.6-0.4,2c-0.2,0.5-0.4,0.9-0.8,1.3s-0.7,0.6-1.3,0.8
				c-0.4,0.2-1,0.3-2,0.4C14.3,20,13.9,20,11,20s-3.3,0-4.4-0.1c-1.1,0-1.6-0.2-2-0.4c-0.5-0.2-0.9-0.4-1.3-0.8S2.7,18,2.5,17.4
				c-0.2-0.4-0.3-1-0.4-2C2,14.3,2,13.9,2,11s0-3.3,0.1-4.4c0-1.1,0.2-1.6,0.4-2C2.7,4,2.9,3.7,3.3,3.3S4,2.7,4.6,2.5
				c0.4-0.2,1-0.3,2-0.4C7.7,2,8.1,2,11,2 M11,0.1c-3,0-3.3,0-4.5,0.1s-2,0.2-2.7,0.5C3.1,0.9,2.5,1.3,1.9,1.9s-1,1.2-1.3,1.9
				C0.4,4.5,0.2,5.3,0.1,6.5c0,1.2,0,1.5,0,4.5s0,3.3,0.1,4.5s0.2,2,0.5,2.7s0.7,1.3,1.3,1.9s1.2,1,1.9,1.3s1.5,0.5,2.7,0.5
				C7.7,22,8,22,11,22s3.3,0,4.5-0.1s2-0.2,2.7-0.5s1.3-0.7,1.9-1.3c0.6-0.6,1-1.2,1.3-1.9c0.3-0.7,0.5-1.5,0.5-2.7
				C22,14.4,22,14,22,11s0-3.3-0.1-4.5s-0.2-2-0.5-2.7s-0.7-1.3-1.3-1.9c-0.6-0.6-1.2-1-1.9-1.3c-0.7-0.3-1.5-0.5-2.7-0.5
				C14.4,0.1,14,0.1,11,0.1L11,0.1z"/>
		</g>
	</g>
</g>
<g>
	<g>
		<g id="WA_Logo_10_">
			<g>
				<path fill-rule="evenodd" clip-rule="evenodd" fill="#FFFFFF" d="M15.9,6.1c-1.2-1.2-2.7-1.8-4.3-1.8c-3.4,0-6.1,2.7-6.1,6.1
					c0,1.1,0.3,2.1,0.8,3.1l-0.9,3.2l3.3-0.9c0.9,0.5,1.9,0.7,2.9,0.7h0c3.4,0,6.1-2.8,6.1-6.1C17.7,8.8,17.1,7.3,15.9,6.1z
					 M11.6,15.5L11.6,15.5c-0.9,0-1.8-0.2-2.6-0.7l-0.2-0.1l-1.9,0.5l0.5-1.9l-0.1-0.2c-0.5-0.8-0.8-1.7-0.8-2.7
					c0-2.8,2.3-5.1,5.1-5.1c1.4,0,2.6,0.5,3.6,1.5s1.5,2.2,1.5,3.6C16.7,13.3,14.4,15.5,11.6,15.5z M14.4,11.7
					c-0.2-0.1-0.9-0.4-1-0.5s-0.2-0.1-0.3,0.1c-0.1,0.2-0.4,0.5-0.5,0.6s-0.2,0.1-0.3,0c-0.2-0.1-0.6-0.2-1.2-0.8
					c-0.5-0.4-0.8-0.9-0.9-1.1c-0.1-0.2,0-0.2,0.1-0.3c0.1-0.1,0.2-0.2,0.2-0.3c0.1-0.1,0.1-0.2,0.2-0.3c0.1-0.1,0-0.2,0-0.3
					c0-0.1-0.3-0.8-0.5-1.1C9.9,7.6,9.8,7.6,9.7,7.6c-0.1,0-0.2,0-0.3,0c-0.1,0-0.3,0-0.4,0.2C8.9,8,8.5,8.3,8.5,9.1
					s0.5,1.5,0.6,1.6c0.1,0.1,1.1,1.6,2.6,2.3c0.4,0.2,0.7,0.3,0.9,0.3c0.4,0.1,0.7,0.1,1,0.1c0.3,0,0.9-0.4,1-0.7s0.1-0.7,0.1-0.7
					C14.6,11.8,14.5,11.8,14.4,11.7z"/>
			</g>
		</g>
	</g>
</g>
</svg>
