<?xml version="1.0" encoding="UTF-8"?><!DOCTYPE svg PUBLIC "-//W3C//DTD SVG 1.1//EN" "http://www.w3.org/Graphics/SVG/1.1/DTD/svg11.dtd"><svg xmlns="http://www.w3.org/2000/svg" xmlns:xlink="http://www.w3.org/1999/xlink"><defs><style>.cls-2{fill:#fff}</style><style>.cls-1{fill:#7e6214}</style><style>.cls-1{fill:#fff}</style><style>.cls-2{fill:#fff}</style><style>.cls-1{fill:#fff}</style><style>.cls-1{fill:#fff}</style><style>.cls-2{fill:#fff}</style></defs><symbol id="arrow-right" viewBox="0 0 12.5 7.36"><g><path d="M12.35 4a.5.5 0 000-.71L9.17.15a.5.5 0 00-.71 0 .5.5 0 000 .7l2.83 2.83-2.83 2.83a.5.5 0 00.71.71zM0 4.18h12v-1H0z"/></g></symbol><symbol id="check" viewBox="0 0 29 21"><g><path d="M9.63 21a1.52 1.52 0 01-1.07-.44L.44 12.37a1.5 1.5 0 112.12-2.11l7.07 7.11L26.44.44a1.5 1.5 0 012.12 2.12l-17.87 18a1.52 1.52 0 01-1.06.44z"/></g></symbol><symbol id="close" viewBox="0 0 20 20"><g><path d="M18.5 20a1.51 1.51 0 01-1.06-.44L10 12.12l-7.44 7.44a1.5 1.5 0 01-2.12-2.12L7.88 10 .44 2.56A1.5 1.5 0 012.56.44L10 7.88 17.44.44a1.5 1.5 0 012.12 2.12L12.12 10l7.44 7.44a1.49 1.49 0 010 2.12 1.51 1.51 0 01-1.06.44z"/></g></symbol><symbol id="download" viewBox="0 0 27 32"><g><path d="M25 32H2a2 2 0 01-2-2V9a2 2 0 012-2h5.5a1.5 1.5 0 010 3H3v19h21V10h-4.5a1.5 1.5 0 010-3H25a2 2 0 012 2v21a2 2 0 01-2 2zm-5-15.5a1.51 1.51 0 01-.44 1.06l-5 5a1.5 1.5 0 01-2.12 0l-5-5a1.5 1.5 0 112.12-2.12L12 17.88V1.5a1.5 1.5 0 013 0v16.38l2.44-2.44A1.5 1.5 0 0120 16.5z"/></g></symbol><symbol id="fb" viewBox="0 0 22 22"><g id="&#x421;&#x43B;&#x43E;&#x439;_2"><g opacity=".35" id="&#x421;&#x43B;&#x43E;&#x439;_1-2"><path class="cls-2" d="M2.78 1.84a1 1 0 00-.95.94v16.44a1 1 0 00.95.94h16.44a1 1 0 001-.94V2.78a1 1 0 00-1-.94zM0 2.78A2.78 2.78 0 012.78 0h16.44A2.78 2.78 0 0122 2.78v16.44A2.78 2.78 0 0119.22 22H2.78A2.78 2.78 0 010 19.22z"/><path class="cls-2" d="M11.93 18v-6.44h2.17l.31-2.48h-2.48V7.52c0-.77.23-1.24 1.24-1.24h1.32V4h-1.94a3 3 0 00-3.18 3.37v1.78H7.43v2.41h1.94V18z"/></g></g></symbol><symbol id="geo" viewBox="0 0 20 24"><g id="&#x421;&#x43B;&#x43E;&#x439;_2"><g id="&#x421;&#x43B;&#x43E;&#x439;_1-2"><path class="cls-1" d="M10 24a1 1 0 01-.55-.17C9.06 23.58 0 17.45 0 10a10 10 0 0117.07-7.07A9.93 9.93 0 0120 10c0 7.45-9.06 13.58-9.45 13.83A1 1 0 0110 24zm0-22a8 8 0 00-8 8c0 5.41 6.1 10.36 8 11.77 1.9-1.41 8-6.36 8-11.77a8 8 0 00-8-8z"/><path class="cls-1" d="M10 14a4 4 0 114-4 4 4 0 01-4 4zm0-6a2 2 0 102 2 2 2 0 00-2-2z"/></g></g></symbol><symbol id="hamburger" viewBox="0 0 17 14"><g id="&#x421;&#x43B;&#x43E;&#x439;_2"><g id="&#x421;&#x43B;&#x43E;&#x439;_1-2"><path class="cls-1" d="M16 8H1a1 1 0 010-2h15a1 1 0 010 2zM16 2H1a1 1 0 010-2h15a1 1 0 010 2zM16 14H1a1 1 0 010-2h15a1 1 0 010 2z"/></g></g></symbol><symbol id="insta" viewBox="0 0 22 22"><g id="&#x421;&#x43B;&#x43E;&#x439;_2"><g opacity=".35" id="&#x421;&#x43B;&#x43E;&#x439;_1-2"><path class="cls-2" d="M2.78 1.84a1 1 0 00-.95.94v16.44a1 1 0 00.95.94h16.44a1 1 0 001-.94V2.78a1 1 0 00-1-.94zM0 2.78A2.78 2.78 0 012.78 0h16.44A2.78 2.78 0 0122 2.78v16.44A2.78 2.78 0 0119.22 22H2.78A2.78 2.78 0 010 19.22z"/><path class="cls-2" d="M7.77 6.14a5.81 5.81 0 017.29.8 5.82 5.82 0 01-1.94 9.46 5.69 5.69 0 01-3.36.31 5.75 5.75 0 01-3-1.61 5.82 5.82 0 011-9zM11 7a4 4 0 00-3.73 2.45 4 4 0 00.82 4.36 4 4 0 005.66-5.58A4 4 0 0011 7zM17.21 3.87a.85.85 0 10.6.25.86.86 0 00-.6-.25z"/><path class="cls-2" d="M16.28 3.8a1.31 1.31 0 111.85 1.85 1.31 1.31 0 11-1.85-1.85zm.93.53a.41.41 0 00-.4.4.39.39 0 00.4.39.39.39 0 00.27-.12.39.39 0 00.12-.28.36.36 0 00-.12-.28.36.36 0 00-.27-.11z"/></g></g></symbol><symbol id="order" viewBox="0 0 18 22"><g><path d="M15 22H3a3 3 0 01-3-3V3a3 3 0 013-3h7a1 1 0 01.38.08 1 1 0 01.33.21l7 7a1 1 0 01.21.33A1 1 0 0118 8v11a3 3 0 01-3 3zM3 2a1.05 1.05 0 00-.71.29A1.05 1.05 0 002 3v16a1.05 1.05 0 00.29.71A1.05 1.05 0 003 20h12a1 1 0 001-1V9h-6a1 1 0 01-1-1V2zm8 5h3.59L11 3.41z"/></g></symbol><symbol id="papers" viewBox="0 0 22 22"><g><path d="M11 22a1 1 0 01-.45-.11l-10-5a1 1 0 11.9-1.78L11 19.88l9.55-4.77a1 1 0 11.9 1.78l-10 5A1 1 0 0111 22zm0-5a1 1 0 01-.45-.11l-10-5a1 1 0 01.9-1.78L11 14.88l9.55-4.77a1 1 0 11.9 1.78l-10 5A1 1 0 0111 17zm0-5a1 1 0 01-.45-.11l-10-5a1 1 0 010-1.78l10-5a1 1 0 01.9 0l10 5a1 1 0 010 1.78l-10 5A1 1 0 0111 12zM3.24 6L11 9.88 18.76 6 11 2.12z"/></g></symbol><symbol id="phone" viewBox="0 0 32 32"><g><path d="M23.51 32a7.34 7.34 0 01-2.45-.42A33.7 33.7 0 01.36 10.33a7.35 7.35 0 012.53-8.11L4.47 1a5 5 0 017.47 1.7l2.67 5.2A3.52 3.52 0 0115 9.49a3.48 3.48 0 01-.93 2.37l-.55.6a2 2 0 00-.3 2.21 9.45 9.45 0 004.09 4.09 2 2 0 002.22-.3l.6-.55a3.56 3.56 0 014-.54L29.28 20a5 5 0 011.28 8l-1.81 1.83A7.44 7.44 0 0123.51 32zM7.5 3a2 2 0 00-1.21.4L4.71 4.61a4.33 4.33 0 00-1.5 4.79 30.69 30.69 0 0018.85 19.35 4.44 4.44 0 004.56-1l1.8-1.82a2 2 0 00-.51-3.19L22.72 20a.53.53 0 00-.56.08l-.6.55a5.05 5.05 0 01-5.62.75 12.3 12.3 0 01-5.38-5.37 5 5 0 01.75-5.62l.55-.6a.51.51 0 00.14-.3.43.43 0 00-.06-.22L9.28 4.09A2 2 0 007.5 3z"/></g></symbol><symbol id="play" viewBox="0 0 45.41 45.41"><g id="&#x421;&#x43B;&#x43E;&#x439;_2"><g id="&#x421;&#x43B;&#x43E;&#x439;_1-2"><path class="cls-1" d="M22.71 45.41a22.71 22.71 0 1122.7-22.7 22.74 22.74 0 01-22.7 22.7zm0-42.41a19.71 19.71 0 1019.7 19.71A19.73 19.73 0 0022.71 3z"/><path class="cls-1" d="M29.68 22.71l-10.19 5.9V16.8z"/></g></g></symbol><symbol id="square-check" viewBox="0 0 24.17 23"><g><path d="M19.67 23H3.33A3.3 3.3 0 011 22a3.36 3.36 0 01-1-2.35V3.33A3.35 3.35 0 013.33 0h12.84a1 1 0 010 2H3.33A1.33 1.33 0 002 3.33v16.34A1.33 1.33 0 003.33 21h16.34A1.33 1.33 0 0021 19.67V11.5a1 1 0 012 0v8.17A3.35 3.35 0 0119.67 23zm-8.17-8.17a1 1 0 01-.71-.29L7.29 11a1 1 0 010-1.41 1 1 0 011.42 0l2.79 2.79 11-11a1 1 0 011.41 1.41l-11.7 11.75a1 1 0 01-.71.29z"/></g></symbol><symbol id="square-phone" viewBox="0 0 17 24"><g><path d="M13.86 24H3.14A3.18 3.18 0 010 20.8V3.2A3.18 3.18 0 013.14 0h10.72A3.18 3.18 0 0117 3.2v17.6a3.18 3.18 0 01-3.14 3.2zM3.14 2A1.17 1.17 0 002 3.2v17.6A1.17 1.17 0 003.14 22h10.72A1.17 1.17 0 0015 20.8V3.2A1.17 1.17 0 0013.86 2zm5.37 17.6a1 1 0 010-2 1 1 0 010 2z"/></g></symbol><symbol id="thin-play-icon" viewBox="0 0 99.39 99.39"><g id="&#x421;&#x43B;&#x43E;&#x439;_2"><g id="&#x421;&#x43B;&#x43E;&#x439;_1-2"><path class="cls-1" d="M49.69 99.39a49.7 49.7 0 1149.7-49.7 49.75 49.75 0 01-49.7 49.7zm0-96.39a46.7 46.7 0 1046.7 46.69A46.75 46.75 0 0049.69 3z"/><path class="cls-1" d="M65.55 49.69L42.38 63.11V36.28z"/></g></g></symbol><symbol id="triangle" viewBox="0 0 13 7"><g><path d="M12.5 7a.47.47 0 01-.35-.15L6.5 1.21.85 6.85a.48.48 0 01-.7 0 .48.48 0 010-.7l6-6a.48.48 0 01.7 0l6 6a.48.48 0 010 .7.47.47 0 01-.35.15z"/></g></symbol><symbol id="vk" viewBox="0 0 22 22"><g id="&#x421;&#x43B;&#x43E;&#x439;_2"><g opacity=".35" id="&#x421;&#x43B;&#x43E;&#x439;_1-2"><path class="cls-2" d="M2.67 1.57a1.11 1.11 0 00-1.1 1.11v16.64a1.11 1.11 0 001.1 1.11h16.66a1.11 1.11 0 001.1-1.11V2.68a1.11 1.11 0 00-1.1-1.11zM0 2.68A2.68 2.68 0 012.67 0h16.66A2.68 2.68 0 0122 2.68v16.64A2.68 2.68 0 0119.33 22H2.67A2.68 2.68 0 010 19.32z"/><path class="cls-2" d="M10.69 7.32a4.22 4.22 0 00-1.58.16c-.23.08-.39.31-.31.31a.8.8 0 01.55.32 1.64 1.64 0 01.24.89s.07 1.73-.32 1.89-.55-.16-1.33-1.49A9.9 9.9 0 017.23 8l-.16-.24h-2.2a.37.37 0 00-.31.16.39.39 0 000 .32 19.31 19.31 0 003.06 5 4.55 4.55 0 001.46 1.06 4.46 4.46 0 001.76.42h.79a.47.47 0 00.31-.16c.08-.08.08-.31.08-.31s0-1 .47-1.18 1.1.94 1.73 1.41a1.23 1.23 0 00.87.24h1.72s1-.08.48-.79A7.49 7.49 0 0016 12.44c-1.1-.95-.94-.79.39-2.52s1.1-1.73.94-2-.62-.16-.62-.16h-2.2c-.08 0-.16.16-.16.16a13.15 13.15 0 01-.71 1.58c-.86 1.41-1.26 1.49-1.41 1.41S12 10 12 9.52s.24-2-.39-2.12z"/></g></g></symbol></svg>